<svg width="143" height="150" viewBox="0 0 143 150" fill="none" xmlns="http://www.w3.org/2000/svg">
<g clip-path="url(#clip0_304_20476)">
<path d="M9.14742 9.8034C16.1686 11.3929 20.532 17.8503 22.3195 21.0761C21.3031 16.6348 18.2072 8.99695 12.6463 7.25549C7.33079 5.59 1.6414 6.07504 0 6.33217C5.49079 9.58134 1.55378 23.2442 16.7878 22.467H19.6325C16.5541 14.5544 9.14742 9.8034 9.14742 9.8034Z" fill="#6FBA2C"/>
<path d="M24.6445 25.2194C10.0472 38.2394 0.853027 57.1968 0.853027 78.3047C0.853027 91.8448 4.63817 104.503 11.2037 115.273L15.4912 112.573C9.41632 102.58 5.9174 90.8514 5.9174 78.3047C5.9174 58.2721 14.837 40.3198 28.9145 28.2114C29.3876 27.8141 32.612 25.0675 33.4531 24.4188C40.2816 19.1184 46.8647 15.5771 48.5119 15.4602C44.9078 17.6049 36.8761 24.4889 30.9414 32.3021C36.2219 33.6053 43.8447 34.8734 48.471 32.904C67.2682 24.9097 58.7633 6.96329 71.6959 3.74334C41.0292 -5.66521 26.3443 6.57175 24.6445 25.2194Z" fill="url(#paint0_linear_304_20476)"/>
<path d="M79.155 7.56519C76.0474 8.38332 74.1957 10.0722 72.9106 12.2753C108.91 12.8013 137.936 42.1548 137.936 78.2988C137.936 90.7988 134.466 102.486 128.432 112.45L132.719 115.15C139.244 104.403 143 91.7864 143 78.2988C143 41.4769 115.014 11.1942 79.155 7.56519Z" fill="#0C86B6"/>
<path d="M22.4541 120.041L21.0522 119.837C21.2041 118.919 21.0289 118.125 20.5148 117.447C20.0709 116.856 19.4985 116.512 18.8092 116.406C18.1199 116.301 17.4891 116.465 16.9342 116.886C16.3559 117.324 16.0229 117.902 15.9295 118.615C15.8418 119.334 16.0229 119.995 16.4844 120.602C16.7823 120.994 17.1152 121.268 17.4891 121.409C17.8571 121.555 18.2835 121.578 18.7625 121.473L17.4482 119.737L18.5171 118.925L20.7952 121.941L20.5499 122.139C20.0242 122.537 19.4284 122.776 18.7508 122.858C18.0732 122.94 17.454 122.858 16.8757 122.613C16.3033 122.367 15.7951 121.952 15.357 121.374C14.8897 120.754 14.6035 120.094 14.5042 119.404C14.4049 118.715 14.4983 118.037 14.7846 117.377C15.0708 116.716 15.503 116.167 16.0813 115.729C16.8757 115.127 17.7636 114.87 18.7449 114.951C19.9132 115.045 20.8712 115.594 21.6247 116.588C22.0161 117.108 22.2906 117.669 22.4425 118.271C22.571 118.785 22.5768 119.375 22.4541 120.041Z" fill="#6FBA2C"/>
<path d="M22.7577 121.397L23.5638 122.28L23.044 122.753C23.336 122.665 23.6047 122.648 23.8559 122.712C24.1071 122.776 24.3174 122.899 24.4868 123.092C24.6094 123.226 24.697 123.396 24.7613 123.606L23.5814 124.091C23.5346 123.916 23.4704 123.787 23.4003 123.711C23.2542 123.553 23.0381 123.507 22.7402 123.577C22.4423 123.647 22.0101 123.939 21.4318 124.465L21.2332 124.652L19.5684 126.166L18.6396 125.143L22.7577 121.397Z" fill="#6FBA2C"/>
<path d="M27.0162 130.204L23.7626 127.124C23.5406 127.457 23.4472 127.802 23.4939 128.164C23.5348 128.527 23.7159 128.86 24.0313 129.158C24.411 129.514 24.8607 129.689 25.3806 129.684L25.8538 130.893C25.3573 130.993 24.89 130.975 24.4577 130.841C24.0254 130.706 23.6049 130.443 23.196 130.058C22.5651 129.456 22.238 128.772 22.2147 127.995C22.1971 127.218 22.4717 126.528 23.0383 125.926C23.6224 125.312 24.3058 124.985 25.0827 124.956C25.8654 124.927 26.5547 125.196 27.1505 125.762C27.7872 126.364 28.1085 127.06 28.1202 127.843C28.1319 128.626 27.8223 129.35 27.1914 130.023L27.0162 130.204ZM26.7592 128.451C26.9052 128.164 26.9461 127.854 26.8818 127.527C26.8176 127.2 26.654 126.914 26.397 126.668C26.1166 126.399 25.7895 126.247 25.4274 126.201C25.1995 126.171 24.9133 126.23 24.5628 126.37L26.7592 128.451Z" fill="#6FBA2C"/>
<path d="M32.4429 134.47L28.9031 131.729C28.7104 132.08 28.6578 132.436 28.7337 132.792C28.8155 133.149 29.0258 133.459 29.3704 133.728C29.7852 134.049 30.2466 134.177 30.7665 134.119L31.3565 135.276C30.8716 135.422 30.4043 135.451 29.9604 135.364C29.5165 135.276 29.0725 135.054 28.6286 134.709C27.9393 134.177 27.548 133.523 27.4487 132.752C27.3494 131.98 27.5538 131.267 28.062 130.613C28.5819 129.941 29.2302 129.555 30.0013 129.444C30.7782 129.333 31.4908 129.532 32.1392 130.04C32.8285 130.578 33.2198 131.232 33.3133 132.009C33.4068 132.787 33.1673 133.541 32.6065 134.271L32.4429 134.47ZM32.0107 132.752C32.1275 132.448 32.1392 132.138 32.0399 131.822C31.9464 131.501 31.7537 131.232 31.4733 131.016C31.1637 130.776 30.8308 130.654 30.4628 130.648C30.2349 130.642 29.9546 130.73 29.6158 130.905L32.0107 132.752Z" fill="#6FBA2C"/>
<path d="M35.2467 132.524L36.4266 133.266L36.1229 133.751C36.5317 133.692 36.8705 133.687 37.1451 133.739C37.4196 133.792 37.6708 133.885 37.8928 134.026C38.3601 134.318 38.6521 134.733 38.7748 135.259C38.8741 135.709 38.7514 136.205 38.4126 136.743L36.4558 139.852L35.2875 139.116L36.5843 137.053C36.9348 136.492 37.1451 136.1 37.2093 135.884C37.2736 135.668 37.2736 135.475 37.2093 135.299C37.1451 135.124 37.0224 134.978 36.8355 134.861C36.596 134.709 36.339 134.663 36.0703 134.715C35.8016 134.768 35.5387 134.914 35.2992 135.153C35.1707 135.276 34.9546 135.586 34.645 136.077L33.4592 137.964L32.2793 137.222L35.2467 132.524Z" fill="#6FBA2C"/>
<path d="M43.3718 135.054L47.1336 136.813L46.5378 138.093L45.2994 137.514L42.7176 143.043L41.4033 142.429L43.9852 136.901L42.776 136.334L43.3718 135.054Z" fill="#6FBA2C"/>
<path d="M51.0937 143.802L46.8939 142.254C46.8179 142.645 46.8705 143.002 47.0516 143.317C47.2327 143.633 47.5306 143.867 47.9394 144.018C48.4301 144.2 48.9091 144.182 49.3881 143.972L50.2993 144.895C49.8787 145.181 49.4465 145.351 48.9909 145.398C48.5411 145.444 48.0504 145.368 47.5247 145.176C46.7069 144.872 46.1345 144.369 45.8132 143.662C45.492 142.955 45.4686 142.213 45.7548 141.441C46.0469 140.647 46.5492 140.08 47.256 139.741C47.9628 139.402 48.7046 139.378 49.4757 139.665C50.2993 139.969 50.8659 140.477 51.1872 141.19C51.5085 141.903 51.5085 142.698 51.193 143.557L51.0937 143.802ZM50.1708 142.295C50.1942 141.973 50.1066 141.675 49.9196 141.395C49.7327 141.12 49.4699 140.921 49.1369 140.793C48.7747 140.658 48.4126 140.641 48.0621 140.746C47.8401 140.81 47.6006 140.974 47.332 141.243L50.1708 142.295Z" fill="#6FBA2C"/>
<path d="M58.1619 143.557L56.8768 143.884C56.725 143.609 56.5556 143.399 56.3687 143.265C56.1817 143.13 55.9539 143.019 55.6735 142.949C55.1712 142.821 54.7214 142.861 54.3301 143.084C53.9387 143.306 53.6875 143.65 53.5648 144.124C53.448 144.58 53.5006 144.994 53.7284 145.363C53.9562 145.731 54.3125 145.976 54.7974 146.105C55.399 146.263 55.9247 146.175 56.3687 145.848L57.2448 146.853C56.4738 147.455 55.5626 147.618 54.5111 147.349C53.5648 147.104 52.8989 146.637 52.5076 145.935C52.1162 145.234 52.0169 144.509 52.2097 143.761C52.344 143.241 52.5952 142.791 52.969 142.423C53.3429 142.049 53.7927 141.798 54.3242 141.669C54.8558 141.541 55.4107 141.547 55.989 141.699C56.5205 141.839 56.9761 142.067 57.3441 142.388C57.718 142.704 57.9925 143.095 58.1619 143.557Z" fill="#6FBA2C"/>
<path d="M59.9026 140.565L61.2695 140.775L60.8547 143.452C61.1585 143.259 61.4564 143.13 61.7484 143.054C62.0405 142.978 62.3209 142.967 62.6013 143.008C63.1445 143.089 63.5768 143.352 63.8922 143.785C64.1609 144.159 64.2485 144.667 64.1492 145.298L63.5826 148.927L62.2274 148.717L62.6013 146.309C62.7006 145.672 62.7356 145.24 62.7123 145C62.6889 144.767 62.6071 144.58 62.4786 144.445C62.3501 144.311 62.1749 144.229 61.9646 144.194C61.6842 144.153 61.433 144.206 61.2052 144.357C60.9774 144.509 60.7963 144.743 60.6737 145.047C60.6094 145.205 60.5276 145.579 60.44 146.169L60.0954 148.372L58.7285 148.162L59.9026 140.565Z" fill="#6FBA2C"/>
<path d="M65.6738 143.569L67.064 143.65L67.0289 144.217C67.3619 143.972 67.6598 143.802 67.9226 143.715C68.1855 143.627 68.4484 143.592 68.7171 143.604C69.2661 143.639 69.7218 143.855 70.0839 144.264C70.3877 144.609 70.5162 145.1 70.4811 145.742L70.2591 149.407L68.8806 149.325L69.0266 146.894C69.0675 146.233 69.0617 145.789 69.015 145.567C68.9682 145.345 68.8748 145.176 68.7346 145.053C68.5944 144.93 68.4133 144.86 68.1972 144.848C67.9168 144.831 67.6656 144.913 67.4553 145.088C67.2392 145.263 67.0873 145.515 66.988 145.842C66.9355 146.011 66.8946 146.385 66.8595 146.964L66.7252 149.19L65.335 149.108L65.6738 143.569Z" fill="#6FBA2C"/>
<path d="M74.4475 143.656C74.9732 143.639 75.4697 143.75 75.937 143.995C76.4101 144.241 76.7781 144.585 77.0527 145.024C77.3272 145.462 77.4732 145.947 77.4908 146.467C77.5083 146.993 77.3973 147.484 77.152 147.951C76.9066 148.419 76.5679 148.787 76.1239 149.056C75.6858 149.331 75.1952 149.477 74.6519 149.494C73.8575 149.523 73.1682 149.26 72.5841 148.717C72 148.168 71.6962 147.49 71.667 146.683C71.6378 145.813 71.9299 145.082 72.5432 144.48C73.0923 143.954 73.7232 143.68 74.4475 143.656ZM74.5176 144.965C74.0853 144.983 73.729 145.146 73.4545 145.456C73.1799 145.766 73.0456 146.157 73.0631 146.625C73.0806 147.11 73.2383 147.496 73.5304 147.782C73.8225 148.068 74.1905 148.209 74.6286 148.191C75.0666 148.173 75.423 148.01 75.7033 147.7C75.9837 147.39 76.1122 146.993 76.0947 146.514C76.0772 146.035 75.9195 145.655 75.6274 145.368C75.3353 145.082 74.9615 144.948 74.5176 144.965Z" fill="#6FBA2C"/>
<path d="M78.0747 141.424L79.4591 141.278L80.2535 148.939L78.8691 149.085L78.0747 141.424Z" fill="#6FBA2C"/>
<path d="M83.4137 142.727C83.9277 142.639 84.4359 142.68 84.9383 142.861C85.4348 143.043 85.8553 143.329 86.1824 143.726C86.5154 144.124 86.7257 144.58 86.8133 145.094C86.9009 145.608 86.86 146.116 86.6789 146.607C86.4979 147.104 86.2116 147.513 85.8144 147.846C85.4172 148.179 84.9499 148.39 84.4184 148.483C83.6357 148.618 82.9172 148.46 82.263 147.998C81.6087 147.537 81.2174 146.905 81.0772 146.111C80.9253 145.257 81.1181 144.486 81.6438 143.808C82.1111 143.206 82.701 142.85 83.4137 142.727ZM83.6649 144.013C83.2384 144.089 82.9113 144.299 82.6777 144.644C82.444 144.989 82.3681 145.398 82.4499 145.859C82.5316 146.339 82.7419 146.695 83.0749 146.94C83.4078 147.186 83.7875 147.274 84.2198 147.198C84.652 147.122 84.9791 146.911 85.2128 146.561C85.4464 146.21 85.5224 145.801 85.4406 145.333C85.3588 144.866 85.1544 144.509 84.8214 144.264C84.4826 144.024 84.1029 143.937 83.6649 144.013Z" fill="#6FBA2C"/>
<path d="M91.2933 141.009L92.631 140.629L93.9219 145.211C94.1789 146.116 94.1847 146.829 93.9394 147.361C93.6123 148.074 92.9581 148.571 91.9767 148.851C91.451 148.997 90.9954 149.056 90.5982 149.027C90.201 148.997 89.8505 148.886 89.5292 148.705C89.2138 148.518 88.9451 148.261 88.7231 147.934L90.201 147.519C90.3762 147.63 90.5748 147.7 90.8026 147.718C91.0304 147.735 91.2875 147.706 91.5678 147.624C91.93 147.525 92.2045 147.385 92.3915 147.209C92.5784 147.034 92.6952 146.847 92.7361 146.648C92.777 146.444 92.7361 146.128 92.6134 145.696C92.444 146 92.2454 146.239 92.0176 146.414C91.7898 146.59 91.5094 146.724 91.1823 146.818C90.4638 147.022 89.7863 146.935 89.1437 146.555C88.5012 146.175 88.0689 145.59 87.847 144.796C87.6075 143.948 87.6776 143.189 88.0572 142.528C88.4019 141.926 88.9042 141.535 89.5585 141.348C89.868 141.26 90.1718 141.237 90.4814 141.272C90.7851 141.307 91.1122 141.418 91.4627 141.599L91.2933 141.009ZM90.2185 142.517C89.7979 142.639 89.4884 142.879 89.2898 143.235C89.0911 143.592 89.0561 143.989 89.1788 144.422C89.3073 144.866 89.5468 145.193 89.9089 145.398C90.2711 145.602 90.6624 145.643 91.0889 145.526C91.5036 145.409 91.8073 145.17 92.0001 144.819C92.1929 144.468 92.2221 144.059 92.0936 143.609C91.9651 143.165 91.7314 142.838 91.3809 142.639C91.0363 142.435 90.6508 142.394 90.2185 142.517Z" fill="#6FBA2C"/>
<path d="M93.2734 140.425L94.5994 139.904L97.2163 142.628L97.4266 138.8L98.7584 138.28L98.2852 146.619L96.9476 147.145L97.117 144.451L93.2734 140.425Z" fill="#6FBA2C"/>
<path d="M107.772 132.67L107.386 133.996C106.44 133.716 105.593 133.786 104.857 134.213C104.238 134.575 103.835 135.089 103.653 135.761C103.472 136.433 103.566 137.082 103.922 137.701C104.173 138.134 104.489 138.467 104.874 138.695C105.26 138.923 105.675 139.034 106.13 139.022C106.586 139.016 107.024 138.888 107.444 138.642C107.807 138.432 108.093 138.175 108.315 137.871C108.537 137.567 108.718 137.129 108.87 136.573L110.213 136.965C110.003 137.713 109.74 138.297 109.419 138.73C109.098 139.156 108.659 139.53 108.11 139.846C107.1 140.43 106.089 140.588 105.073 140.319C104.057 140.051 103.262 139.414 102.684 138.414C102.31 137.766 102.123 137.105 102.123 136.433C102.123 135.761 102.31 135.112 102.678 134.487C103.046 133.862 103.548 133.371 104.179 133.003C104.717 132.693 105.295 132.506 105.926 132.448C106.557 132.383 107.17 132.459 107.772 132.67Z" fill="#6FBA2C"/>
<path d="M115.249 131.887L111.644 134.546C111.931 134.826 112.258 134.978 112.62 134.996C112.982 135.019 113.344 134.896 113.695 134.639C114.115 134.329 114.366 133.915 114.448 133.4L115.722 133.149C115.733 133.657 115.634 134.113 115.424 134.516C115.213 134.92 114.881 135.288 114.431 135.621C113.73 136.141 112.994 136.34 112.229 136.223C111.463 136.106 110.833 135.714 110.342 135.048C109.84 134.365 109.641 133.634 109.746 132.863C109.851 132.085 110.237 131.454 110.903 130.963C111.609 130.443 112.345 130.245 113.116 130.373C113.887 130.502 114.548 130.928 115.097 131.671L115.249 131.887ZM113.473 131.828C113.216 131.635 112.918 131.536 112.585 131.542C112.252 131.548 111.942 131.653 111.65 131.869C111.335 132.103 111.13 132.389 111.019 132.74C110.949 132.962 110.955 133.254 111.037 133.622L113.473 131.828Z" fill="#6FBA2C"/>
<path d="M114.139 128.655L115.173 127.72L115.552 128.141C115.611 127.732 115.698 127.399 115.821 127.153C115.944 126.902 116.101 126.692 116.3 126.51C116.709 126.142 117.188 125.973 117.731 126.002C118.193 126.031 118.631 126.283 119.063 126.756L121.522 129.485L120.5 130.408L118.87 128.597C118.426 128.106 118.111 127.796 117.918 127.673C117.725 127.551 117.538 127.498 117.357 127.51C117.17 127.521 116.995 127.603 116.837 127.749C116.627 127.936 116.51 128.17 116.487 128.445C116.463 128.719 116.534 129.006 116.697 129.31C116.785 129.467 117.018 129.76 117.404 130.186L118.893 131.846L117.86 132.781L114.139 128.655Z" fill="#6FBA2C"/>
<path d="M117.316 122.893L118.286 121.888L119.758 123.314L120.331 122.718L121.195 123.553L120.623 124.149L123.753 127.177L122.784 128.182L119.653 125.155L119.156 125.669L118.292 124.833L118.788 124.319L117.316 122.893Z" fill="#6FBA2C"/>
<path d="M126.82 120L123.952 123.442C124.297 123.647 124.647 123.711 125.009 123.647C125.366 123.583 125.687 123.378 125.967 123.045C126.3 122.648 126.446 122.186 126.405 121.66L127.58 121.111C127.714 121.602 127.726 122.069 127.615 122.507C127.504 122.946 127.27 123.384 126.914 123.816C126.359 124.488 125.693 124.857 124.916 124.927C124.145 124.997 123.438 124.769 122.801 124.237C122.147 123.694 121.785 123.033 121.703 122.256C121.621 121.479 121.849 120.772 122.375 120.141C122.936 119.469 123.607 119.1 124.384 119.036C125.161 118.972 125.909 119.235 126.616 119.825L126.82 120ZM125.085 120.369C124.787 120.24 124.478 120.217 124.157 120.304C123.835 120.386 123.561 120.567 123.327 120.842C123.076 121.14 122.942 121.473 122.924 121.835C122.912 122.063 122.988 122.35 123.152 122.689L125.085 120.369Z" fill="#6FBA2C"/>
<path d="M124.758 117.371L125.453 116.395L126.02 116.804C125.874 116.541 125.798 116.278 125.81 116.021C125.816 115.764 125.897 115.53 126.043 115.319C126.149 115.173 126.295 115.045 126.487 114.94L127.212 115.992C127.048 116.079 126.937 116.161 126.879 116.249C126.756 116.424 126.756 116.646 126.885 116.921C127.013 117.195 127.399 117.558 128.029 118.008L128.251 118.16L130.08 119.463L129.274 120.591L124.758 117.371Z" fill="#6FBA2C"/>
<path d="M77.4956 55.2392H76.7538V52.0309C76.4968 52.551 76.2514 52.9718 76.0236 53.299L75.2993 53.0185C75.8951 52.2588 76.3449 51.4407 76.6486 50.5524H75.346V49.8103H76.7538V46.228H77.4956V49.8103H78.734V50.5524H77.4956V50.6109C77.9746 51.1952 78.4302 51.7913 78.845 52.4108L78.2433 52.8549C78.033 52.4984 77.7819 52.1127 77.4956 51.6978V55.2392ZM76.012 46.9468C76.2806 47.9695 76.4442 48.6999 76.5026 49.1499L75.8075 49.2376C75.7024 48.4603 75.5447 47.7474 75.3285 47.087L76.012 46.9468ZM78.845 47.1572C78.6639 47.9636 78.4828 48.6415 78.3076 49.185L77.6533 48.9395C77.922 48.1915 78.0914 47.5312 78.1674 46.9702L78.845 47.1572ZM84.2481 49.1674V49.8336H78.8742V49.1674H81.1231V48.6298H79.2831V47.9636H81.1231V47.426H79.0961V46.7598H81.1231V46.2163H81.8999V46.7598H84.0963V47.426H81.8999V47.9636H83.8334V48.6298H81.8999V49.1674H84.2481ZM79.9548 55.1574H79.1779V50.5466C79.1779 50.4297 79.2363 50.3713 79.359 50.3713H83.7458C83.8684 50.3713 83.9327 50.4297 83.9327 50.5466V54.3392C83.9327 54.6489 83.81 54.8944 83.5647 55.0639C83.2434 55.2742 82.6535 55.2859 81.7831 55.0989V54.234C82.4081 54.4269 82.7937 54.4736 82.9455 54.3743C83.0857 54.2925 83.15 54.1756 83.15 54.0295V53.5152H79.949V55.1574H79.9548ZM83.15 51.6102V51.0959C83.15 51.0608 83.1266 51.0375 83.0857 51.0375H80.0074C79.9723 51.0375 79.949 51.055 79.949 51.0959V51.6102H83.15ZM83.15 52.849V52.2764H79.949V52.849H83.15Z" fill="#0C86B6"/>
<path d="M87.8462 47.759V48.5363H84.873V47.759H87.8462ZM88.1266 53.1938C88.2026 52.7497 88.2435 52.1945 88.2493 51.5341V47.8292C88.2551 47.6831 88.3252 47.6129 88.4654 47.6129H90.7727C90.7669 47.198 90.761 46.7773 90.761 46.339L91.5379 46.415C91.5204 46.8182 91.5146 47.2156 91.5204 47.6188H93.4889V48.396H91.5379C91.5847 49.67 91.7365 50.827 91.9994 51.8672C92.087 51.6569 92.1688 51.4348 92.2506 51.2127C92.4258 50.6809 92.5485 49.9505 92.6244 49.0271L93.3954 49.1557C93.2261 50.5816 92.8522 51.8088 92.2681 52.8432C92.3849 53.1763 92.5134 53.4918 92.6536 53.8015C92.7471 54.0119 92.8288 54.123 92.9048 54.123C92.9223 54.123 92.934 54.0937 92.9398 54.0353C92.9574 53.8892 92.969 53.5094 92.969 52.8782L93.7167 53.0652C93.6583 53.9301 93.5999 54.4794 93.5356 54.7249C93.4772 54.8943 93.413 55.0112 93.3312 55.0697C93.2377 55.1456 93.1326 55.1807 93.0216 55.1807C92.6069 55.1748 92.1863 54.6431 91.7482 53.5853C91.1466 54.2983 90.4573 54.8417 89.6862 55.2158L89.1605 54.6138C90.1127 54.1989 90.8779 53.5912 91.4678 52.7847C91.1057 51.6919 90.8837 50.2251 90.8019 48.3843H89.1255C89.0554 48.3902 89.0203 48.4252 89.0203 48.4895V49.4654H90.3872C90.5566 49.4596 90.6442 49.4947 90.6501 49.5765V52.1477C90.6442 52.7613 90.4515 53.1996 90.0776 53.4685C89.9024 53.5736 89.5577 53.562 89.0437 53.4334V52.6562C89.3767 52.8081 89.5694 52.8607 89.6337 52.8256C89.7213 52.7672 89.7855 52.6795 89.8323 52.5627C89.8848 52.4516 89.9082 52.3523 89.9082 52.2705V50.2251C89.9024 50.1608 89.8673 50.1316 89.8031 50.1316H89.0145V51.7679C89.0087 52.9776 88.7867 54.0587 88.3486 55.0171L87.7177 54.7833C87.7002 54.8125 87.6652 54.8301 87.6243 54.8301H85.1125C85.0424 54.8301 85.0074 54.795 85.0074 54.719V51.5283C85.0132 51.4582 85.0483 51.4231 85.1125 51.4231H87.6243C87.7002 51.429 87.7353 51.464 87.7353 51.5283V54.3976C87.928 53.971 88.0507 53.5678 88.1266 53.1938ZM87.5483 46.5201V47.2974H85.1359V46.5201H87.5483ZM87.5483 48.9804V49.7226H85.1768V48.9804H87.5483ZM87.5483 50.1842V50.9264H85.1768V50.1842H87.5483ZM85.831 52.1594C85.8076 52.1594 85.796 52.1711 85.8018 52.1887V54.047C85.796 54.0645 85.8076 54.0762 85.831 54.0821H86.935C86.9584 54.0762 86.9701 54.0645 86.9701 54.047V52.1887C86.9701 52.1711 86.9584 52.1594 86.935 52.1594H85.831ZM92.3382 46.2221C92.6361 46.3916 92.9632 46.637 93.302 46.9526L92.823 47.537C92.455 47.2097 92.1454 46.976 91.8942 46.824L92.3382 46.2221Z" fill="#0C86B6"/>
<path d="M94.4005 52.7614V52.0192H98.4718V51.464H95.6855C95.5045 51.464 95.411 51.3705 95.411 51.1835V48.4311C95.1773 48.6765 94.9554 48.8811 94.7451 49.0505L94.1084 48.5188C94.9437 47.8701 95.5687 47.0987 95.9834 46.2104L96.6844 46.5552C96.5734 46.7656 96.4566 46.9701 96.3456 47.1571H98.5945C98.7405 46.8357 98.869 46.526 98.9859 46.2163L99.716 46.5728C99.5933 46.8883 99.5116 47.0812 99.4707 47.1571H102.52L102.456 47.8584H99.2779V48.396H102.28V49.0973H99.2779V49.594H102.315V50.2953H99.2779V50.7569H102.526V51.4582H99.2779V52.0134H102.841V52.7555H99.494C100.47 53.41 101.679 53.8366 103.121 54.0295L102.748 54.7775C101.468 54.4853 100.312 54.0353 99.2779 53.4334V55.0755H98.4601V53.3399C97.0349 54.1639 95.7206 54.6431 94.5231 54.7775L94.2427 53.9769C95.6213 53.8133 96.883 53.4042 98.0337 52.7497H94.4005V52.7614ZM98.4718 47.8643H96.293C96.2229 47.8701 96.1879 47.9052 96.1879 47.9694V48.4019H98.466V47.8643H98.4718ZM98.4718 49.1031H96.1937V49.5999H98.4718V49.1031ZM98.4718 50.3011H96.1937V50.6459C96.1996 50.7219 96.2346 50.7569 96.2989 50.7569H98.4777V50.3011H98.4718Z" fill="#0C86B6"/>
<path d="M112 54.9762H104.044C103.928 54.9703 103.869 54.9061 103.869 54.7892V46.6429C103.869 46.526 103.928 46.4617 104.044 46.4617H112C112.123 46.4617 112.187 46.5202 112.187 46.6429V54.7892C112.181 54.9119 112.117 54.9762 112 54.9762ZM106.644 52.8023H104.973V52.2121H109.436V51.7504L105.236 51.8614L105.16 51.1952L107.695 51.1309V50.6985H105.341C105.283 50.6985 105.259 50.6693 105.259 50.605V48.5012C105.259 48.4428 105.289 48.4194 105.341 48.4194H107.695V48.0688H104.973V47.4786H107.695V47.1338H104.687C104.634 47.1396 104.611 47.163 104.611 47.2097V54.2282C104.617 54.2866 104.64 54.3158 104.687 54.3158H109.179C108.986 54.2691 108.723 54.1814 108.402 54.0412V53.299C108.945 53.4977 109.249 53.5795 109.313 53.5328C109.401 53.4685 109.448 53.41 109.448 53.3458V52.8023H106.737C106.983 53.0068 107.245 53.2815 107.532 53.6263L107.035 54.0762C106.72 53.6964 106.451 53.4159 106.217 53.2406L106.644 52.8023ZM107.695 48.9337H105.943C105.925 48.9337 105.919 48.9454 105.925 48.9629V49.2843H107.695V48.9337ZM107.695 49.7986H105.925V50.1433C105.919 50.1609 105.925 50.1726 105.943 50.1784H107.695V49.7986ZM110.143 53.5035C110.131 53.7256 110.084 53.8892 110.002 54.012C109.909 54.1347 109.769 54.2399 109.582 54.31H111.363C111.422 54.31 111.445 54.2808 111.445 54.2223V47.2039C111.445 47.1513 111.416 47.1279 111.363 47.1279H108.361V47.4727H110.949V48.0629H108.361V48.4194H110.703C110.768 48.4194 110.797 48.4486 110.797 48.5012V50.605C110.797 50.6693 110.768 50.6985 110.703 50.6985H110.598C110.826 50.9498 111.06 51.2595 111.311 51.6394L110.774 52.0426C110.692 51.9199 110.616 51.8147 110.54 51.7329H110.137V52.2121H111.241V52.8023H110.137V53.5035H110.143ZM108.361 49.2785H110.131V48.957C110.131 48.9395 110.119 48.9278 110.102 48.9278H108.355V49.2785H108.361ZM108.361 50.1842H110.108C110.125 50.1784 110.137 50.1667 110.137 50.1492V49.8044H108.367V50.1842H108.361ZM110.137 50.6985H108.367V51.1017L110.02 51.055C109.973 50.9965 109.932 50.9498 109.886 50.9147L110.137 50.6985Z" fill="#0C86B6"/>
<path d="M33.2249 55.2041C32.8511 55.1223 32.5006 55.0054 32.1735 54.8534C31.8464 54.7015 31.5485 54.5087 31.2798 54.2807L32.0158 53.1704C32.3429 53.4451 32.7051 53.6555 33.1081 53.7957C33.5111 53.936 33.9376 54.0061 34.3932 54.0061C34.9598 54.0061 35.392 53.9067 35.7075 53.7022C36.0171 53.5035 36.1748 53.2172 36.1748 52.849V52.8432C36.1748 52.586 36.1047 52.3815 35.9645 52.2237C35.8243 52.0718 35.6432 51.9608 35.4212 51.8848C35.1993 51.8147 34.9072 51.7445 34.5567 51.6861C34.5451 51.6802 34.5334 51.6802 34.5217 51.6802C34.51 51.6802 34.4983 51.6802 34.4866 51.6744L34.3815 51.6569C33.8149 51.5634 33.3534 51.4523 32.9913 51.3238C32.6291 51.1952 32.3195 50.9673 32.0625 50.64C31.8055 50.3128 31.677 49.8453 31.677 49.2434V49.2375C31.677 48.7057 31.7997 48.2499 32.0391 47.8701C32.2786 47.4902 32.6291 47.2039 33.0847 47.0052C33.5404 46.8065 34.0894 46.7072 34.732 46.7072C35.0357 46.7072 35.3336 46.7422 35.6374 46.8065C35.9411 46.8766 36.239 46.9701 36.5311 47.1045C36.8231 47.2389 37.1035 47.3967 37.3781 47.5896L36.7063 48.735C36.3792 48.5012 36.0521 48.3259 35.7133 48.209C35.3745 48.0863 35.0474 48.0279 34.7261 48.0279C34.1946 48.0279 33.7798 48.1272 33.4878 48.3201C33.1957 48.5129 33.0497 48.7934 33.0497 49.144V49.1499C33.0497 49.4187 33.1256 49.6291 33.2775 49.781C33.4294 49.9329 33.6163 50.0498 33.8441 50.1199C34.0719 50.1901 34.3873 50.266 34.7904 50.3479C34.8079 50.3537 34.8196 50.3537 34.8313 50.3537C34.843 50.3537 34.8605 50.3595 34.8722 50.3654C34.8897 50.3712 34.9131 50.3712 34.9364 50.3771C34.9598 50.3829 34.9831 50.3829 35.0007 50.3888C35.5205 50.494 35.9586 50.6167 36.3091 50.7628C36.6596 50.9089 36.9517 51.1485 37.1853 51.4699C37.419 51.7971 37.5416 52.2354 37.5416 52.7964V52.8081C37.5416 53.3341 37.419 53.784 37.1736 54.158C36.9283 54.532 36.5661 54.8184 36.093 55.0112C35.6198 55.2041 35.0532 55.3034 34.3873 55.3034C33.9901 55.3209 33.5988 55.28 33.2249 55.2041Z" fill="#0C86B6"/>
<path d="M42.0396 51.8965V55.2333H40.6552V51.8965L38.126 46.8065H39.6155L41.3445 50.5232L43.0735 46.8065H44.5631L42.0396 51.8965Z" fill="#0C86B6"/>
<path d="M46.8582 55.2041C46.4844 55.1223 46.1339 55.0054 45.8068 54.8534C45.4797 54.7015 45.1818 54.5087 44.9131 54.2807L45.6491 53.1704C45.9762 53.4451 46.3384 53.6555 46.7414 53.7957C47.1444 53.936 47.5709 54.0061 48.0265 54.0061C48.5931 54.0061 49.0253 53.9067 49.3408 53.7022C49.6504 53.5035 49.8081 53.2172 49.8081 52.849V52.8432C49.8081 52.586 49.738 52.3815 49.5978 52.2237C49.4576 52.0718 49.2765 51.9608 49.0545 51.8848C48.8326 51.8147 48.5405 51.7445 48.19 51.6861C48.1784 51.6802 48.1667 51.6802 48.155 51.6802C48.1433 51.6802 48.1316 51.6802 48.1199 51.6744L48.0148 51.6569C47.4482 51.5634 46.9867 51.4523 46.6246 51.3238C46.2624 51.1952 45.9528 50.9673 45.6958 50.64C45.4388 50.3128 45.3103 49.8453 45.3103 49.2434V49.2375C45.3103 48.7057 45.433 48.2499 45.6725 47.8701C45.9119 47.4902 46.2624 47.2039 46.718 47.0052C47.1737 46.8065 47.7227 46.7072 48.3653 46.7072C48.669 46.7072 48.9669 46.7422 49.2707 46.8065C49.5744 46.8766 49.8723 46.9701 50.1644 47.1045C50.4564 47.2389 50.7368 47.3967 51.0114 47.5896L50.3396 48.735C50.0125 48.5012 49.6854 48.3259 49.3466 48.209C49.0078 48.0863 48.6807 48.0279 48.3594 48.0279C47.8279 48.0279 47.4131 48.1272 47.1211 48.3201C46.829 48.5129 46.683 48.7934 46.683 49.144V49.1499C46.683 49.4187 46.7589 49.6291 46.9108 49.781C47.0627 49.9329 47.2496 50.0498 47.4774 50.1199C47.7052 50.1901 48.0206 50.266 48.4237 50.3479C48.4412 50.3537 48.4529 50.3537 48.4646 50.3537C48.4763 50.3537 48.4938 50.3595 48.5055 50.3654C48.523 50.3712 48.5464 50.3712 48.5697 50.3771C48.5931 50.3829 48.6164 50.3829 48.634 50.3888C49.1538 50.494 49.5919 50.6167 49.9424 50.7628C50.2929 50.9089 50.585 51.1485 50.8186 51.4699C51.0523 51.7971 51.1749 52.2354 51.1749 52.7964V52.8081C51.1749 53.3341 51.0523 53.784 50.8069 54.158C50.5616 54.532 50.1994 54.8184 49.7263 55.0112C49.2531 55.2041 48.6865 55.3034 48.0206 55.3034C47.6234 55.3209 47.2321 55.28 46.8582 55.2041Z" fill="#0C86B6"/>
<path d="M57.887 46.8065H51.8237V48.1331H54.1661V55.2333H55.5446V48.1331H57.887V46.8065Z" fill="#0C86B6"/>
<path d="M64.6977 48.1331V46.8065H60.5504H59.7385H59.166V55.2333H59.7385H60.5504H64.6977V53.9068H60.5504V51.7095H64.061V50.3888H60.5504V48.1331H64.6977Z" fill="#0C86B6"/>
<path d="M68.5528 50.231L70.5563 46.8065H72.0575L69.2712 51.4699L67.0691 55.2391H65.5679L68.5528 50.231ZM68.5703 51.6569L68.4009 51.3705L65.638 46.8007H67.1392L69.096 50.1141L69.3063 50.4589L72.186 55.2333H70.6848L68.5703 51.6569Z" fill="#0C86B6"/>
<path d="M70.0598 72.2972H66.6777V71.2103H69.7269C70.1766 71.2103 70.5446 70.8421 70.5446 70.3921C70.5446 69.9422 70.1766 69.574 69.7269 69.574H66.6777V68.4871H70.0598C70.5096 68.4871 70.8776 68.1189 70.8776 67.6689C70.8776 67.2189 70.5096 66.8508 70.0598 66.8508H66.6777V66.208C66.6777 65.758 66.3097 65.3898 65.8599 65.3898C65.4102 65.3898 65.0422 65.758 65.0422 66.208V66.8508H61.0351C60.5853 66.8508 60.2173 67.2189 60.2173 67.6689C60.2173 68.1189 60.5853 68.4871 61.0351 68.4871H65.0422V69.574H61.3622C60.9124 69.574 60.5444 69.9422 60.5444 70.3921C60.5444 70.8421 60.9124 71.2103 61.3622 71.2103H65.0422V72.2972H61.0351C60.5853 72.2972 60.2173 72.6654 60.2173 73.1154C60.2173 73.5653 60.5853 73.9335 61.0351 73.9335H65.0422V74.3017C65.0422 74.7516 65.4102 75.1198 65.8599 75.1198C66.3097 75.1198 66.6777 74.7516 66.6777 74.3017V73.9335H70.0598C70.5096 73.9335 70.8776 73.5653 70.8776 73.1154C70.8776 72.6654 70.5096 72.2972 70.0598 72.2972Z" fill="#6FBA2C"/>
<path d="M58.366 72.2972H54.6743V71.2103H58.0389C58.4887 71.2103 58.8567 70.8421 58.8567 70.3921C58.8567 69.9422 58.4887 69.574 58.0389 69.574H54.6743V68.4871H58.366C58.8158 68.4871 59.1838 68.1189 59.1838 67.6689C59.1838 67.2189 58.8158 66.8508 58.366 66.8508H54.6743V66.208C54.6743 65.758 54.3063 65.3898 53.8565 65.3898C53.4068 65.3898 53.0388 65.758 53.0388 66.208V66.8508H49.3471C48.8973 66.8508 48.5293 67.2189 48.5293 67.6689C48.5293 68.1189 48.8973 68.4871 49.3471 68.4871H53.0388V69.574H49.6742C49.2244 69.574 48.8564 69.9422 48.8564 70.3921C48.8564 70.8421 49.2244 71.2103 49.6742 71.2103H53.0388V72.2972H49.3471C48.8973 72.2972 48.5293 72.6654 48.5293 73.1154C48.5293 73.5653 48.8973 73.9335 49.3471 73.9335H53.0388V74.3017C53.0388 74.7516 53.4068 75.1198 53.8565 75.1198C54.3063 75.1198 54.6743 74.7516 54.6743 74.3017V73.9335H58.366C58.8158 73.9335 59.1838 73.5653 59.1838 73.1154C59.1838 72.6654 58.8216 72.2972 58.366 72.2972Z" fill="#6FBA2C"/>
<path d="M70.7491 78.6319H67.7701V76.7268C67.7701 76.2769 67.4021 75.9087 66.9523 75.9087H51.7124C51.2627 75.9087 50.8947 76.2769 50.8947 76.7268C50.8947 77.1768 51.2627 77.545 51.7124 77.545H66.1345V78.6319H48.6049C48.1551 78.6319 47.7871 79.0001 47.7871 79.4501C47.7871 79.9 48.1551 80.2682 48.6049 80.2682H66.1345V81.3551H51.7124C51.2627 81.3551 50.8947 81.7233 50.8947 82.1733C50.8947 82.6232 51.2627 82.9914 51.7124 82.9914H66.9523C67.4021 82.9914 67.7701 82.6232 67.7701 82.1733V80.2682H70.7491C71.1989 80.2682 71.5669 79.9 71.5669 79.4501C71.5669 79.0001 71.1989 78.6319 70.7491 78.6319Z" fill="#6FBA2C"/>
<path d="M48.9963 88.8996C48.8152 88.8996 48.6342 88.8411 48.4881 88.7184C48.1377 88.4379 48.0792 87.9236 48.3596 87.5672L51.1109 84.1252C51.3912 83.7745 51.9053 83.7161 52.2616 83.9966C52.6121 84.2771 52.6705 84.7914 52.3901 85.1478L49.6389 88.5898C49.4753 88.7944 49.2358 88.8996 48.9963 88.8996Z" fill="#6FBA2C"/>
<path d="M65.7961 88.8995H54.3822C53.9325 88.8995 53.5645 88.5314 53.5645 88.0814V84.803C53.5645 84.353 53.9325 83.9849 54.3822 83.9849C54.832 83.9849 55.2 84.353 55.2 84.803V87.2632H64.9783V85.9075C64.9783 85.4575 65.3463 85.0893 65.7961 85.0893C66.2458 85.0893 66.6138 85.4575 66.6138 85.9075V88.0814C66.6138 88.5372 66.2458 88.8995 65.7961 88.8995Z" fill="#6FBA2C"/>
<path d="M60.9943 86.4393C60.784 86.4393 60.5737 86.3574 60.416 86.1997L59.2302 85.0134C58.9089 84.692 58.9089 84.1777 59.2302 83.8563C59.5515 83.5349 60.0655 83.5349 60.3868 83.8563L61.5726 85.0426C61.8938 85.364 61.8938 85.8783 61.5726 86.1997C61.4148 86.3574 61.2046 86.4393 60.9943 86.4393Z" fill="#6FBA2C"/>
<path d="M70.5739 87.7191C70.3636 87.7191 70.1534 87.6373 69.9898 87.4736L67.3262 84.7855C67.0108 84.4641 67.0107 83.944 67.332 83.6284C67.6533 83.3128 68.1732 83.3128 68.4886 83.6342L71.1522 86.3224C71.4676 86.6438 71.4676 87.1639 71.1464 87.4795C70.9887 87.6373 70.7784 87.7191 70.5739 87.7191Z" fill="#6FBA2C"/>
<path d="M83.0507 68.9078C82.7178 68.6039 82.1979 68.6273 81.8942 68.9604L78.6114 72.5544L76.4151 70.4798L79.6745 67.067C79.9841 66.7398 79.9724 66.2196 79.6453 65.9099C79.3182 65.6002 78.8041 65.6119 78.4887 65.9391L74.6627 69.948C74.5108 70.1058 74.429 70.3162 74.4349 70.5324C74.4407 70.7486 74.5342 70.959 74.6919 71.1051L77.5074 73.764L74.0085 77.5917C73.7923 77.8313 73.7339 78.1761 73.8624 78.4741C73.9909 78.7722 74.2888 78.965 74.6101 78.965H78.1265V88.0872C78.1265 88.5372 78.4945 88.9054 78.9443 88.9054C79.3941 88.9054 79.7621 88.5372 79.7621 88.0872V78.965H81.4327C81.8825 78.965 82.2505 78.5969 82.2505 78.1469V74.6523C82.2505 74.2023 81.8825 73.8342 81.4327 73.8342C80.9829 73.8342 80.6149 74.2023 80.6149 74.6523V77.3288H76.4676L83.1033 70.0649C83.4071 69.7318 83.3837 69.2117 83.0507 68.9078Z" fill="#6FBA2C"/>
<path d="M74.9898 87.8885C74.9373 87.8885 74.8788 87.8827 74.8263 87.871C74.3823 87.7834 74.0961 87.3509 74.1896 86.9068L75.387 81.022C75.4746 80.5779 75.9069 80.2916 76.3508 80.3851C76.7948 80.4727 77.081 80.9052 76.9875 81.3493L75.7901 87.234C75.7083 87.6256 75.3695 87.8885 74.9898 87.8885Z" fill="#6FBA2C"/>
<path d="M82.1981 85.066C81.8125 85.066 81.4679 84.7913 81.392 84.3939L80.8604 81.5012C80.7786 81.0571 81.0707 80.6305 81.5146 80.5487C81.9586 80.4669 82.385 80.7591 82.4667 81.2032L82.9983 84.0959C83.0801 84.54 82.788 84.9666 82.3441 85.0484C82.2974 85.0601 82.2506 85.066 82.1981 85.066Z" fill="#6FBA2C"/>
<path d="M87.9052 80.2215C87.6774 80.2215 87.4554 80.128 87.2919 79.9468L84.8619 77.2002C84.564 76.8613 84.5932 76.347 84.932 76.0431C85.2708 75.7451 85.7848 75.7743 86.0886 76.1133L88.5185 78.8599C88.8164 79.1988 88.7872 79.7131 88.4484 80.0169C88.2907 80.1514 88.098 80.2215 87.9052 80.2215Z" fill="#6FBA2C"/>
<path d="M83.2437 88.5606C83.0509 88.5606 82.8581 88.4963 82.7063 88.3561C82.3675 88.0581 82.3324 87.5438 82.6303 87.199L87.391 81.7643C87.6889 81.4253 88.2029 81.3903 88.5475 81.6883C88.8863 81.9863 88.9214 82.5006 88.6235 82.8454L83.8628 88.2801C83.6935 88.4671 83.4715 88.5606 83.2437 88.5606Z" fill="#6FBA2C"/>
<path d="M96.8481 74.9737C97.2979 74.9737 97.6659 74.6056 97.6659 74.1556C97.6659 73.7056 97.2979 73.3375 96.8481 73.3375H93.7347L95.2709 67.1722C95.3294 66.9268 95.2768 66.6697 95.1249 66.471C94.9672 66.2723 94.7335 66.1554 94.4824 66.1554H86.6142C86.2462 66.1554 85.9191 66.4067 85.8256 66.7632L84.7508 70.8071C84.6866 71.0525 84.7391 71.3155 84.891 71.5142C85.0429 71.7129 85.2824 71.8356 85.5394 71.8356H92.4262L92.0524 73.3375H84.2602C83.8104 73.3375 83.4424 73.7056 83.4424 74.1556C83.4424 74.6056 83.8104 74.9737 84.2602 74.9737H89.5815V87.2633H88.0803C87.6306 87.2633 87.2626 87.6314 87.2626 88.0814C87.2626 88.5314 87.6306 88.8996 88.0803 88.8996H90.3993C90.8491 88.8996 91.2171 88.5314 91.2171 88.0814V81.735L95.785 88.21C95.9427 88.4379 96.1997 88.5548 96.4509 88.5548C96.6144 88.5548 96.778 88.508 96.924 88.4028C97.292 88.1399 97.3796 87.6315 97.1226 87.2633L92.3269 80.4728L95.9544 77.2645C96.2932 76.9665 96.3224 76.4464 96.0245 76.1074C95.7266 75.7685 95.2067 75.7393 94.8679 76.0373L91.3748 79.1287L91.2113 78.9008V74.9737H96.8481ZM86.5967 70.2052L87.2334 67.7975H93.4251L92.8235 70.2052H86.5967Z" fill="#6FBA2C"/>
<path d="M74.7507 113.975C74.7215 113.975 74.6864 113.975 74.6572 113.97C74.2074 113.917 73.8862 113.514 73.9387 113.064L75.7963 96.8763C75.8488 96.4264 76.2519 96.105 76.7017 96.1576C77.1514 96.2101 77.4727 96.6134 77.4201 97.0633L75.5626 113.251C75.51 113.671 75.1596 113.975 74.7507 113.975Z" fill="#6FBA2C"/>
<path d="M89.1027 111.439C88.7114 111.439 88.3609 111.153 88.2966 110.755L86.0419 97.1101C85.966 96.666 86.2697 96.2452 86.7137 96.1693C87.1576 96.0992 87.5782 96.3972 87.6541 96.8413L89.9088 110.487C89.9848 110.931 89.681 111.352 89.2371 111.428C89.1904 111.433 89.1495 111.439 89.1027 111.439Z" fill="#6FBA2C"/>
<path d="M105.341 94.0889C103.694 94.0889 102.31 95.2343 101.936 96.777H93.8864C93.4367 96.777 93.0803 97.1452 93.0803 97.5952V113.8H82.0462V94.0188C82.0462 93.5688 81.6782 93.2006 81.2284 93.2006C80.7786 93.2006 80.4106 93.5688 80.4106 94.0188V114.618C80.4106 115.068 80.7786 115.436 81.2284 115.436H93.9098C94.3596 115.436 94.7159 115.068 94.7159 114.618V98.4133H101.936C102.304 99.9502 103.688 101.101 105.341 101.101C107.275 101.101 108.846 99.5295 108.846 97.5952C108.846 95.6609 107.275 94.0889 105.341 94.0889ZM105.341 99.4652C104.313 99.4652 103.472 98.6295 103.472 97.5952C103.472 96.5608 104.307 95.7252 105.341 95.7252C106.369 95.7252 107.21 96.5608 107.21 97.5952C107.21 98.6295 106.369 99.4652 105.341 99.4652Z" fill="#6FBA2C"/>
<path d="M69.879 96.742H60.4921V94.0129C60.4921 93.5629 60.1241 93.1948 59.6743 93.1948C59.2245 93.1948 58.8565 93.5629 58.8565 94.0129V96.742H49.4696C49.0199 96.742 48.6519 97.1101 48.6519 97.5601V108.441C48.6519 108.891 49.0199 109.259 49.4696 109.259H58.8565V123.022C57.3378 123.39 56.2046 124.757 56.2046 126.388C56.2046 128.299 57.7584 129.859 59.6743 129.859C61.5903 129.859 63.144 128.304 63.144 126.388C63.144 124.757 62.0108 123.39 60.4921 123.022V109.259H69.879C70.3288 109.259 70.6968 108.891 70.6968 108.441V97.5601C70.6968 97.1043 70.3288 96.742 69.879 96.742ZM61.5786 126.394C61.5786 127.445 60.7258 128.299 59.6743 128.299C58.6229 128.299 57.7701 127.445 57.7701 126.394C57.7701 125.342 58.6229 124.488 59.6743 124.488C60.7258 124.488 61.5786 125.342 61.5786 126.394ZM50.2874 107.623V98.3782H58.8565V107.623H50.2874ZM69.0612 107.623H60.4921V98.3782H69.0612V107.623Z" fill="#6FBA2C"/>
<path d="M110.014 72.4024H100.207C99.9089 72.4024 99.6344 72.2388 99.4942 71.9817C99.3482 71.7187 99.3599 71.4031 99.5176 71.1518L102.695 66.0677C102.935 65.682 103.443 65.571 103.823 65.8106C104.208 66.0502 104.319 66.5527 104.085 66.9384L101.691 70.772H108.688L106.714 66.8742C106.51 66.4709 106.673 65.98 107.076 65.7755C107.479 65.571 107.97 65.7346 108.174 66.1378L110.75 71.222C110.879 71.4732 110.867 71.7771 110.715 72.0226C110.563 72.2563 110.301 72.4024 110.014 72.4024Z" fill="#6FBA2C"/>
<path d="M109.196 73.9569H101.03C100.58 73.9569 100.212 74.3251 100.212 74.775V88.0873C100.212 88.5373 100.58 88.9054 101.03 88.9054C101.48 88.9054 101.848 88.5373 101.848 88.0873V83.8038H108.378V87.2691H107.514C107.064 87.2691 106.696 87.6373 106.696 88.0873C106.696 88.5373 107.064 88.9054 107.514 88.9054H109.196C109.646 88.9054 110.014 88.5373 110.014 88.0873V74.775C110.014 74.3192 109.646 73.9569 109.196 73.9569ZM108.378 75.5932V77.9775H101.848V75.5932H108.378ZM101.848 82.1616V79.6137H108.378V82.1616H101.848Z" fill="#6FBA2C"/>
<path d="M42.8981 78.4858H27.3778C26.9281 78.4858 26.5601 78.854 26.5601 79.304V88.0814C26.5601 88.5314 26.9281 88.8995 27.3778 88.8995H42.9039C43.3537 88.8995 43.7217 88.5314 43.7217 88.0814V79.304C43.7159 78.854 43.3537 78.4858 42.8981 78.4858ZM42.0803 80.1221V82.8746H28.1956V80.1221H42.0803ZM28.1956 87.2633V84.5108H42.0861V87.2633H28.1956Z" fill="#6FBA2C"/>
<path d="M123.087 60.072C121.154 60.072 119.582 61.6439 119.582 63.5783C119.582 64.2445 119.769 64.8581 120.09 65.3898L113.408 72.2505V66.2021C113.408 65.7522 113.04 65.384 112.59 65.384C112.14 65.384 111.772 65.7522 111.772 66.2021V75.9379C111.772 76.3879 112.14 76.7561 112.59 76.7561H120.423C120.873 76.7561 121.241 76.3879 121.241 75.9379V73.4193C121.241 72.9693 120.873 72.6011 120.423 72.6011C119.974 72.6011 119.606 72.9693 119.606 73.4193V75.1198H113.408V74.5939L121.241 66.5528C121.779 66.8859 122.409 67.0845 123.081 67.0845C125.015 67.0845 126.586 65.5126 126.586 63.5783C126.592 61.6439 125.02 60.072 123.087 60.072ZM123.087 65.4483C122.059 65.4483 121.218 64.6126 121.218 63.5783C121.218 62.5497 122.053 61.7082 123.087 61.7082C124.115 61.7082 124.956 62.5439 124.956 63.5783C124.956 64.6068 124.115 65.4483 123.087 65.4483Z" fill="#6FBA2C"/>
<path d="M120.429 84.7446C119.979 84.7446 119.611 85.1127 119.611 85.5627V87.2633H113.414V86.112L119.138 80.2332C119.454 79.9117 119.448 79.3916 119.121 79.0761C118.8 78.7605 118.28 78.7664 117.964 79.0936L113.414 83.7687V78.7079C113.414 78.2579 113.046 77.8898 112.596 77.8898C112.146 77.8898 111.778 78.2579 111.778 78.7079V88.0814C111.778 88.5314 112.146 88.8995 112.596 88.8995H120.429C120.879 88.8995 121.247 88.5314 121.247 88.0814V85.5627C121.247 85.1127 120.879 84.7446 120.429 84.7446Z" fill="#6FBA2C"/>
<path d="M44.9134 76.8204H37.9564C37.5067 76.8204 37.1387 76.4522 37.1387 76.0022V67.6631C37.1387 67.2131 37.5067 66.845 37.9564 66.845H44.9192C45.369 66.845 45.737 67.2131 45.737 67.6631V76.0022C45.7312 76.4522 45.369 76.8204 44.9134 76.8204ZM38.7742 75.1841H44.1015V68.4812H38.7742V75.1841Z" fill="#6FBA2C"/>
<path d="M36.1865 72.0401C36.1865 71.5901 35.8185 71.222 35.3687 71.222H30.906V68.4812H34.8722C35.322 68.4812 35.69 68.113 35.69 67.6631C35.69 67.2131 35.322 66.8449 34.8722 66.8449H27.4947L27.5998 66.7047C27.8802 66.3482 27.816 65.834 27.4596 65.5593C27.1033 65.2846 26.5893 65.3431 26.3147 65.6995L24.282 68.3117C24.0016 68.6682 24.0659 69.1825 24.4222 69.4571C24.5741 69.574 24.7493 69.6324 24.9245 69.6324C25.1699 69.6324 25.4094 69.5214 25.5729 69.3169L26.233 68.4695C26.2622 68.4754 26.2914 68.4812 26.3264 68.4812H29.2763V71.222H24.7318C24.282 71.222 23.914 71.5901 23.914 72.0401C23.914 72.4901 24.282 72.8582 24.7318 72.8582H28.3183L20.7305 80.6539C20.1931 80.3208 19.5622 80.1221 18.8905 80.1221C16.957 80.1221 15.3857 81.6941 15.3857 83.6284C15.3857 85.5627 16.957 87.1347 18.8905 87.1347C20.824 87.1347 22.3953 85.5627 22.3953 83.6284C22.3953 82.9622 22.2083 82.3486 21.8871 81.8168L30.1466 73.3316L34.1829 76.8671C34.5217 77.1651 35.0416 77.1301 35.3395 76.7911C35.6374 76.4522 35.6024 75.9321 35.2636 75.6341L32.0918 72.8582H35.3862C35.8243 72.8582 36.1865 72.4901 36.1865 72.0401ZM18.8788 85.4926C17.8508 85.4926 17.0096 84.6569 17.0096 83.6226C17.0096 82.594 17.8449 81.7525 18.8788 81.7525C19.9069 81.7525 20.748 82.5882 20.748 83.6226C20.748 84.6569 19.9069 85.4926 18.8788 85.4926Z" fill="#6FBA2C"/>
</g>
<defs>
<linearGradient id="paint0_linear_304_20476" x1="37.2608" y1="48.8473" x2="75.6052" y2="16.6866" gradientUnits="userSpaceOnUse">
<stop offset="0.1113" stop-color="#6FBA2C"/>
<stop offset="0.9582" stop-color="#0C86B6"/>
</linearGradient>
<clipPath id="clip0_304_20476">
<rect width="143" height="149" fill="white" transform="translate(0 0.5)"/>
</clipPath>
</defs>
</svg>
