<svg width="1482" height="1067" viewBox="0 0 1482 1067" fill="none" xmlns="http://www.w3.org/2000/svg">
  <style type="text/css">
    #earth {
      animation-name: scale;
      animation-duration: 2s;
      transform-origin: center;
    }

    #fan,
    #small_fan {
      animation: rotation 5s linear infinite;
    }

    #fan {
      transform-origin: 923.91px 327.24px;
    }

    #small_fan {
      transform-origin: 1164.07px 387.84px;
    }

    @keyframes scale {

      0%,
      25% {
        transform: scale(0);
        opacity: 0;
      }

      100% {
        transform: scale(1);
        opacity: 1;
      }
    }

    @keyframes rotation {
      100% {
        transform: rotate(360deg);
      }
    }
  </style>
  <g id="Login background" clip-path="url(#clip0_4505_304)">
    <g id="earth">
      <path id="Vector"
        d="M1386.46 688.95C1401.74 341.422 1109.94 46.3319 734.72 29.8475C359.497 13.3632 42.9352 281.727 27.6594 629.255C12.3836 976.783 304.178 1271.87 679.401 1288.36C1054.62 1304.84 1371.19 1036.48 1386.46 688.95Z"
        fill="url(#paint0_linear_4505_304)" fill-opacity="0.56" />
      <path id="Vector_2"
        d="M194.015 241.738C179.09 265.696 167.579 292.67 169.736 320.811C172.24 353.397 188.736 383.915 189.584 416.585C191.019 471.993 148.233 518.375 134.884 572.176C119.964 632.306 176.214 700.824 198.623 734.389C221.032 767.954 211.402 707.159 224.991 683.452C238.581 659.745 267.882 783.205 313.653 810.299C338.209 824.838 367.023 834.514 384.682 856.927C410.442 889.613 403.304 936.131 399.434 977.565C395.569 1019 401.362 1069.5 438.685 1087.91C460.665 1098.76 488.599 1095.09 508.431 1109.49C543.262 1134.77 526.624 1189.89 540.424 1230.65C555.433 1274.97 585.194 1275.55 631.238 1284.95C677.281 1294.35 625.435 1193.22 647.006 1157.87C658.344 1139.3 675.652 1124.51 684.592 1104.67C696.993 1077.15 693.5 1040.39 717.558 1022.15C735.589 1008.48 760.685 1012.18 783.313 1011.98C805.942 1011.78 833.462 1001.97 836.029 979.492C838.307 959.549 818.333 943.644 798.794 939.021C779.255 934.398 758.433 936.602 739.245 930.696C684.356 913.801 658.758 837.011 601.434 833.419C552.437 830.346 511.4 885.33 463.257 875.728C436.418 870.372 418.046 846.613 398.125 827.854C372.532 803.755 340.77 785.671 320.451 756.985C300.131 728.3 296.675 682.452 325.583 662.447C347.054 647.583 377.565 653.62 398.774 668.85C419.989 684.08 434.433 706.677 450.013 727.635C454.826 734.106 460.272 740.813 467.965 743.221C488.677 749.703 503.796 720.567 498.837 699.441C493.883 678.316 478.952 659.735 478.25 638.044C477.015 599.819 518.187 575.568 554.307 562.971C590.426 550.375 632.997 535.359 643.618 498.621C647.367 485.642 646.383 471.365 652.107 459.124C671.08 418.569 771.19 398.329 747.257 374.811C723.329 351.298 647.378 346.183 632.583 298.827C627.289 281.874 621.837 259.461 604.147 257.822C575.333 255.152 558.889 290.806 534.721 296.926C523.246 299.832 522.141 319.314 522.592 343.272C522.916 360.664 509.08 375.025 491.688 375.35C474.291 375.68 459.921 361.853 459.591 344.46C459.471 338.005 460.597 331.481 463.252 324.973C467.907 313.57 476.742 304.45 485.65 295.947C522.822 260.461 633.746 221.472 610.52 206.367C587.294 191.262 475.81 149.577 459.183 172.582C442.555 195.587 470.055 176.105 476.763 203.388C483.472 230.67 394.297 227.011 353.061 238.827C346.253 240.78 338.701 242.676 332.328 239.592C325.201 236.142 322.205 227.854 318.335 220.948C297.628 183.959 228.746 207.969 228.746 207.969C228.746 207.969 207.353 220.33 194.015 241.738Z"
        fill="url(#paint1_linear_4505_304)" fill-opacity="0.5" />
      <path id="Vector_3"
        d="M194.015 241.738C179.09 265.696 167.579 292.67 169.736 320.811C172.24 353.397 188.736 383.915 189.584 416.585C191.019 471.993 148.233 518.375 134.884 572.176C119.964 632.306 176.214 700.824 198.623 734.389C221.032 767.954 211.402 707.159 224.991 683.452C238.581 659.745 267.882 783.205 313.653 810.299C338.209 824.838 367.023 834.514 384.682 856.927C410.442 889.613 403.304 936.131 399.434 977.565C395.569 1019 401.362 1069.5 438.685 1087.91C460.665 1098.76 488.599 1095.09 508.431 1109.49C543.262 1134.77 526.624 1189.89 540.424 1230.65C555.433 1274.97 585.194 1275.55 631.238 1284.95C677.281 1294.35 625.435 1193.22 647.006 1157.87C658.344 1139.3 675.652 1124.51 684.592 1104.67C696.993 1077.15 693.5 1040.39 717.558 1022.15C735.589 1008.48 760.685 1012.18 783.313 1011.98C805.942 1011.78 833.462 1001.97 836.029 979.492C838.307 959.549 818.333 943.644 798.794 939.021C779.255 934.398 758.433 936.602 739.245 930.696C684.356 913.801 658.758 837.011 601.434 833.419C552.437 830.346 511.4 885.33 463.257 875.728C436.418 870.372 418.046 846.613 398.125 827.854C372.532 803.755 340.77 785.671 320.451 756.985C300.131 728.3 296.675 682.452 325.583 662.447C347.054 647.583 377.565 653.62 398.774 668.85C419.989 684.08 434.433 706.677 450.013 727.635C454.826 734.106 460.272 740.813 467.965 743.221C488.677 749.703 503.796 720.567 498.837 699.441C493.883 678.316 478.952 659.735 478.25 638.044C477.015 599.819 518.187 575.568 554.307 562.971C590.426 550.375 632.997 535.359 643.618 498.621C647.367 485.642 646.383 471.365 652.107 459.124C671.08 418.569 771.19 398.329 747.257 374.811C723.329 351.298 647.378 346.183 632.583 298.827C627.289 281.874 621.837 259.461 604.147 257.822C575.333 255.152 558.889 290.806 534.721 296.926C523.246 299.832 522.141 319.314 522.592 343.272C522.916 360.664 509.08 375.025 491.688 375.35C474.291 375.68 459.921 361.853 459.591 344.46C459.471 338.005 460.597 331.481 463.252 324.973C467.907 313.57 476.742 304.45 485.65 295.947C522.822 260.461 633.746 221.472 610.52 206.367C587.294 191.262 475.81 149.577 459.183 172.582C442.555 195.587 470.055 176.105 476.763 203.388C483.472 230.67 394.297 227.011 353.061 238.827C346.253 240.78 338.701 242.676 332.328 239.592C325.201 236.142 322.205 227.854 318.335 220.948C297.628 183.959 228.746 207.969 228.746 207.969C228.746 207.969 207.353 220.33 194.015 241.738Z"
        fill="url(#paint2_linear_4505_304)" />
      <path id="Vector_4"
        d="M505.556 73.8863C495.543 92.5458 525.32 92.2422 528.279 113.211C555.082 116.132 566.09 73.8863 592.594 68.9544C607.551 66.1743 622.057 76.8863 630.185 89.7448C638.313 102.603 642.104 117.703 648.996 131.263C664.435 161.65 696.307 183.037 730.29 185.807C737.684 186.409 745.828 185.938 751.394 181.032C767.55 166.802 744.44 140.064 750.441 119.394C757.302 95.771 791.373 99.3573 814.4 90.6925C820.753 88.305 869.603 75.2737 870.388 68.5303C871.782 56.5828 849.116 48.9755 823.764 42.4625C780.81 31.4207 705.231 31.8814 668.289 35.2217C619.146 39.6667 537.255 36.0751 505.556 73.8863Z"
        fill="url(#paint3_linear_4505_304)" fill-opacity="0.5" />
      <path id="Vector_5"
        d="M1325.2 876.346C1336.34 806.645 1335.41 735.038 1322.47 665.651C1319.02 647.143 1310.94 625.076 1292.3 622.411C1270.73 619.327 1244.33 644.096 1230.83 627.002C1224.87 619.458 1227.25 608.474 1230.63 599.469C1239.53 575.725 1253.47 553.888 1271.25 535.809C1282.3 524.579 1294.94 514.626 1303.45 501.37C1321.64 473.014 1308.87 431.58 1283.12 409.852C1257.37 388.125 1224.14 427.088 1197.07 411.622C1170 396.156 1169.16 358.633 1164.08 327.879C1160.31 305.099 1143.52 243.388 1124.97 273.44C1106.43 303.497 1149.71 423.14 1198.42 480.496C1204.3 487.412 1210.79 495.16 1210.29 504.223C1209.1 525.862 1177.56 524.898 1156.34 529.333C1130.07 534.82 1089.82 520.752 1112.03 566.511C1123.75 590.641 1179.72 623.672 1164.68 639.824C1149.64 655.976 1103.41 702.756 1081.71 740.588C1060.01 778.42 1049.5 825.529 1065.86 865.953C1082.22 906.377 1131.41 934.293 1171.57 917.262C1190.37 909.293 1210.85 892.717 1228.32 903.277C1244.14 912.838 1241.8 935.796 1241.02 954.261C1240.24 972.727 1250.89 997.24 1268.86 992.905C1274.77 991.476 1279.42 986.994 1283.42 982.408C1308.71 953.361 1319.12 914.372 1325.2 876.346Z"
        fill="url(#paint4_linear_4505_304)" fill-opacity="0.5" />
      <path id="Vector_6"
        d="M1325.2 876.346C1336.34 806.645 1335.41 735.038 1322.47 665.651C1319.02 647.143 1310.94 625.076 1292.3 622.411C1270.73 619.327 1244.33 644.096 1230.83 627.002C1224.87 619.458 1227.25 608.474 1230.63 599.469C1239.53 575.725 1253.47 553.888 1271.25 535.809C1282.3 524.579 1294.94 514.626 1303.45 501.37C1321.64 473.014 1308.87 431.58 1283.12 409.852C1257.37 388.125 1224.14 427.088 1197.07 411.622C1170 396.156 1169.16 358.633 1164.08 327.879C1160.31 305.099 1143.52 243.388 1124.97 273.44C1106.43 303.497 1149.71 423.14 1198.42 480.496C1204.3 487.412 1210.79 495.16 1210.29 504.223C1209.1 525.862 1177.56 524.898 1156.34 529.333C1130.07 534.82 1089.82 520.752 1112.03 566.511C1123.75 590.641 1179.72 623.672 1164.68 639.824C1149.64 655.976 1103.41 702.756 1081.71 740.588C1060.01 778.42 1049.5 825.529 1065.86 865.953C1082.22 906.377 1131.41 934.293 1171.57 917.262C1190.37 909.293 1210.85 892.717 1228.32 903.277C1244.14 912.838 1241.8 935.796 1241.02 954.261C1240.24 972.727 1250.89 997.24 1268.86 992.905C1274.77 991.476 1279.42 986.994 1283.42 982.408C1308.71 953.361 1319.12 914.372 1325.2 876.346Z"
        fill="url(#paint5_linear_4505_304)" />
      <g id="Group" opacity="0.68">
        <path id="Vector_7"
          d="M896.819 669.861C896.656 780.917 889.068 892.199 869.581 1001.68C864.648 1029.03 858.924 1056.24 852.1 1083.2C845.256 1110.15 837.353 1136.86 827.67 1162.97C822.815 1176.02 817.51 1188.91 811.535 1201.52C805.56 1214.11 798.919 1226.43 791.21 1238.12C783.47 1249.75 774.693 1260.89 763.879 1270.04C758.474 1274.58 752.541 1278.61 746.026 1281.56C739.522 1284.49 732.426 1286.34 725.225 1286.48C718.029 1286.69 710.823 1285.27 704.198 1282.6C697.542 1279.95 691.467 1276.11 685.937 1271.71C674.866 1262.85 665.895 1251.83 658.019 1240.29C650.158 1228.7 643.444 1216.42 637.37 1203.87C631.321 1191.3 625.937 1178.44 621.03 1165.41C611.227 1139.34 603.24 1112.65 596.338 1085.72C589.446 1058.78 583.665 1031.57 578.69 1004.23C568.76 949.544 561.999 894.325 557.448 838.959C552.934 783.582 550.688 728.028 550.447 672.468C550.331 644.693 551.023 616.919 551.992 589.16C553.002 561.401 554.5 533.663 556.516 505.962C560.564 450.564 566.645 395.287 575.715 340.466C580.266 313.063 585.576 285.77 591.965 258.723C598.375 231.686 605.827 204.865 615.076 178.624C619.726 165.514 624.811 152.551 630.609 139.891C636.401 127.232 642.884 114.855 650.499 103.153C658.134 91.5043 666.911 80.384 677.83 71.494C683.287 67.0856 689.299 63.2532 695.882 60.6564C702.439 58.0281 709.551 56.6878 716.631 56.9548C723.711 57.1538 730.692 58.9339 737.134 61.7768C743.585 64.6354 749.519 68.5202 754.971 72.9285C765.869 81.7976 774.892 92.6509 782.899 104.049C790.875 115.499 797.835 127.609 804.119 140.027C810.419 152.446 816.028 165.195 821.202 178.1C831.519 203.938 840.029 230.451 847.439 257.236C854.824 284.031 861.071 311.131 866.476 338.382C887.858 447.496 896.531 558.788 896.819 669.861ZM890.183 669.861C890.262 614.484 888.136 559.092 883.512 503.909C878.935 448.732 872.001 393.711 861.71 339.303C856.567 312.105 850.582 285.058 843.465 258.314C836.321 231.582 828.078 205.121 818.055 179.346C813.022 166.472 807.56 153.76 801.422 141.383C795.295 129.007 788.508 116.944 780.721 105.567C772.912 94.2372 764.104 83.4677 753.525 74.7086C748.241 70.3526 742.496 66.5254 736.285 63.7087C730.074 60.9234 723.381 59.1014 716.579 58.9234C709.781 58.7035 702.983 60.0595 696.694 62.6407C690.378 65.1956 684.586 68.9547 679.307 73.295C668.744 82.0489 660.197 93.0488 652.766 104.619C645.351 116.237 639.035 128.551 633.405 141.158C627.765 153.766 622.827 166.692 618.323 179.76C609.357 205.927 602.172 232.692 596.029 259.67C589.902 286.665 584.848 313.9 580.559 341.251C572.002 395.968 566.425 451.135 562.874 506.401C559.297 561.678 557.983 617.081 558.077 672.463C557.972 727.839 559.863 783.226 564.021 838.446C568.21 893.66 574.61 948.733 584.162 1003.26C588.949 1030.52 594.537 1057.64 601.229 1084.49C607.933 1111.32 615.71 1137.9 625.272 1163.83C630.059 1176.78 635.311 1189.56 641.219 1202.02C647.147 1214.47 653.698 1226.63 661.344 1238.05C668.996 1249.42 677.71 1260.21 688.283 1268.78C693.567 1273.03 699.328 1276.72 705.56 1279.24C711.776 1281.78 718.453 1283.17 725.141 1282.96C731.829 1282.79 738.417 1281.03 744.523 1278.23C750.64 1275.42 756.275 1271.55 761.443 1267.14C771.792 1258.28 780.312 1247.35 787.832 1235.88C795.327 1224.36 801.805 1212.16 807.633 1199.67C813.462 1187.17 818.636 1174.35 823.37 1161.38C832.807 1135.41 840.5 1108.8 847.136 1081.95C853.755 1055.09 859.275 1027.96 864.02 1000.69C873.499 946.141 879.82 891.063 884.014 835.849C888.241 780.64 890.199 725.248 890.183 669.861Z"
          fill="white" fill-opacity="0.2" />
        <path id="Vector_8"
          d="M1177.04 669.861C1176.9 705.599 1174.64 741.347 1169.87 776.771C1165.09 812.189 1157.99 847.31 1148.4 881.749C1129.04 950.534 1099.79 1016.74 1059.98 1076.18C1040.08 1105.86 1017.51 1133.8 992.294 1159.14C967.088 1184.48 939.186 1207.2 908.927 1226.25C878.662 1245.26 845.973 1260.54 811.729 1270.9C777.474 1281.18 741.726 1286.51 705.958 1286.5C670.19 1286.54 634.437 1281.23 600.166 1270.98C565.906 1260.64 533.196 1245.38 502.906 1226.38C472.62 1207.35 444.686 1184.65 419.444 1159.32C394.192 1133.99 371.594 1106.06 351.652 1076.37C311.783 1016.93 282.482 950.701 263.048 881.885C253.422 847.43 246.243 812.305 241.466 776.855C236.711 741.399 234.47 705.63 234.36 669.866C234.491 634.102 236.748 598.338 241.519 562.883C246.316 527.438 253.517 492.318 263.163 457.878C282.634 389.088 311.971 322.895 351.861 263.503C371.809 233.843 394.406 205.933 419.659 180.624C444.901 155.326 472.814 132.645 503.099 113.656C533.385 94.6928 566.089 79.5359 600.297 69.1956C634.521 58.9235 670.231 53.5989 705.958 53.6094C741.684 53.6251 777.385 58.9706 811.598 69.2637C845.795 79.6249 878.474 94.808 908.733 113.782C938.992 132.787 966.873 155.483 992.079 180.792C1017.29 206.105 1039.86 234.021 1059.77 263.681C1099.6 323.063 1128.88 389.235 1148.28 457.999C1157.89 492.428 1165 527.537 1169.81 562.951C1174.6 598.38 1176.88 634.123 1177.04 669.861ZM1169.43 669.861C1169.41 634.447 1167.29 599.024 1162.67 563.904C1158.04 528.794 1151.11 493.977 1141.72 459.826C1122.95 391.575 1094.6 325.691 1055.58 266.471C1036.08 236.891 1013.94 209.022 989.136 183.703C964.328 158.41 936.902 135.598 906.968 116.583C877.023 97.63 844.69 82.3474 810.77 72.0019C776.835 61.7454 741.423 56.3999 705.963 56.3424C670.504 56.4261 635.097 61.7978 601.177 72.07C567.273 82.4416 534.961 97.7504 505.042 116.714C475.134 135.745 447.74 158.577 422.969 183.875C398.198 209.205 376.088 237.079 356.627 266.66C317.68 325.874 289.379 391.732 270.678 459.957C252.04 528.26 243.006 599.086 243.022 669.861C243.043 740.635 252.108 811.451 270.788 879.739C289.531 947.942 317.868 1013.76 356.836 1072.93C376.302 1102.49 398.418 1130.33 423.183 1155.64C447.954 1180.9 475.338 1203.72 505.241 1222.7C535.15 1241.63 567.456 1256.85 601.313 1267.22C635.186 1277.5 670.546 1282.9 705.968 1283C741.391 1282.92 776.756 1277.56 810.645 1267.29C844.517 1256.94 876.845 1241.75 906.779 1222.84C936.709 1203.87 964.119 1181.07 988.926 1155.81C1013.73 1130.52 1035.88 1102.67 1055.38 1073.11C1094.42 1013.94 1122.8 948.099 1141.62 879.87C1151.03 845.728 1157.97 810.917 1162.62 775.813C1167.24 740.698 1169.39 705.274 1169.43 669.861Z"
          fill="white" fill-opacity="0.2" />
        <path id="Vector_9"
          d="M155.193 425.805L296.937 424.884L438.68 424.36L722.167 423.936L1005.65 424.402L1147.4 424.973L1289.14 425.967C1289.32 425.967 1289.48 426.119 1289.47 426.308C1289.47 426.491 1289.32 426.638 1289.14 426.643L1147.4 427.638L1005.65 428.208L722.167 428.674L438.68 428.255L296.937 427.727L155.193 426.805C154.916 426.805 154.696 426.58 154.696 426.303C154.701 426.03 154.921 425.81 155.193 425.805Z"
          fill="white" fill-opacity="0.2" />
        <path id="Vector_10"
          d="M319.633 188.462L420.267 187.54L520.9 187.017C554.443 186.797 587.991 186.818 621.533 186.75L722.167 186.593L923.433 187.059L1024.07 187.629L1124.7 188.624C1124.88 188.624 1125.03 188.776 1125.03 188.964C1125.03 189.148 1124.88 189.294 1124.7 189.3L1024.07 190.294L923.433 190.865L722.167 191.331L621.533 191.174C587.991 191.106 554.443 191.127 520.9 190.907L420.267 190.383L319.633 189.462C319.356 189.462 319.136 189.231 319.141 188.959C319.141 188.687 319.361 188.467 319.633 188.462Z"
          fill="white" fill-opacity="0.2" />
        <path id="Vector_11"
          d="M105.935 663.154L259.99 662.233L414.045 661.704L722.162 661.28L1030.28 661.746L1184.33 662.316L1338.39 663.311C1338.58 663.311 1338.72 663.463 1338.72 663.652C1338.72 663.835 1338.58 663.981 1338.39 663.987L1184.33 664.981L1030.28 665.552L722.162 666.018L414.045 665.594L259.99 665.065L105.935 664.144C105.657 664.144 105.437 663.919 105.437 663.641C105.442 663.374 105.662 663.154 105.935 663.154Z"
          fill="white" fill-opacity="0.2" />
        <path id="Vector_12"
          d="M155.193 900.497L296.937 899.576L438.68 899.047L722.167 898.623L1005.65 899.089L1147.4 899.66L1289.14 900.654C1289.32 900.654 1289.48 900.806 1289.47 900.995C1289.47 901.178 1289.32 901.325 1289.14 901.33L1147.4 902.325L1005.65 902.895L722.167 903.361L438.68 902.942L296.937 902.414L155.193 901.492C154.916 901.492 154.696 901.267 154.696 900.99C154.701 900.717 154.921 900.497 155.193 900.497Z"
          fill="white" fill-opacity="0.2" />
      </g>
    </g>
    <path id="Vector_13" d="M1142.4 811.931L1151.26 403.591H1175.55V821.867L1142.4 811.931Z"
      fill="url(#paint6_linear_4505_304)" />
    <path id="Vector_14"
      d="M1187.08 821.878C1187.08 828.315 1184.03 833.114 1180.26 833.114H1136.83C1133.06 833.114 1130 828.315 1130 821.878C1130 815.441 1133.06 810.641 1136.83 810.641H1180.26C1184.03 810.641 1187.08 815.441 1187.08 821.878Z"
      fill="#165DFF" />
    <path id="Vector_15"
      d="M1329.66 1221.99C1322.16 1228.67 1381.24 1089.06 1359.68 901.642C1349.52 813.322 1320.15 707.304 1356.97 653.045C1387.62 607.881 1530.15 591.319 1577.1 587.031C1582.96 586.497 1586.81 593.023 1583.48 597.878C1567.07 621.825 1533.06 676.999 1533.04 723.07C1533.01 783.792 1489.4 834.553 1444.11 857.613C1398.83 880.674 1374.76 897.52 1372.77 980.713C1370.78 1063.91 1350.98 1203.01 1329.66 1221.99Z"
      fill="url(#paint7_linear_4505_304)" />
    <path id="Vector_16"
      d="M1521.61 630.539C1521.61 630.539 1520.33 630.989 1517.93 631.966C1515.52 632.929 1512.03 634.446 1507.64 636.476C1503.25 638.519 1497.98 641.131 1492.1 644.414C1486.22 647.684 1479.74 651.667 1472.88 656.273C1466.03 660.9 1458.86 666.276 1451.72 672.468C1444.58 678.647 1437.52 685.692 1430.86 693.499C1417.52 709.071 1406.26 728.238 1399.92 749.088L1398.77 753.009L1398.2 754.969L1397.74 756.957C1397.17 759.61 1396.49 762.256 1395.95 764.895C1394.92 770.34 1393.89 775.757 1392.87 781.139C1391.86 786.515 1390.84 791.855 1389.85 797.127C1388.84 802.391 1387.99 807.6 1387.07 812.726C1385.27 822.965 1383.52 832.863 1382.04 842.298C1381.28 847.008 1380.54 851.587 1379.81 856.02C1379.14 860.46 1378.49 864.748 1377.87 868.863C1377.26 872.985 1376.67 876.926 1376.11 880.68C1375.58 884.442 1375.09 888.002 1374.62 891.355C1373.65 898.053 1372.92 903.907 1372.34 908.728C1371.76 913.549 1371.3 917.338 1370.99 919.922C1370.71 922.499 1370.56 923.877 1370.56 923.877L1370.55 923.912C1370.48 924.625 1369.83 925.138 1369.13 925.062C1368.44 924.986 1367.93 924.383 1367.97 923.704C1367.97 923.704 1368.04 922.305 1368.18 919.693C1368.35 917.089 1368.51 913.251 1368.95 908.395C1369.33 903.533 1369.81 897.631 1370.5 890.877C1370.83 887.497 1371.18 883.901 1371.55 880.112C1372 876.33 1372.47 872.354 1372.97 868.205C1373.48 864.056 1373.93 859.726 1374.55 855.265C1375.17 850.804 1375.82 846.191 1376.48 841.453C1377.17 836.715 1377.77 831.831 1378.59 826.871C1379.4 821.905 1380.22 816.834 1381.06 811.674C1381.92 806.52 1382.72 801.255 1383.66 795.97C1384.65 790.699 1385.64 785.358 1386.64 779.976C1387.65 774.593 1388.66 769.169 1389.67 763.725C1390.23 760.933 1390.91 758.19 1391.54 755.426L1392.03 753.355L1392.64 751.312L1393.86 747.232C1397.24 736.391 1401.85 725.938 1407.42 716.268C1413.03 706.605 1419.56 697.731 1426.54 689.765C1433.52 681.792 1441.02 674.803 1448.48 668.638C1455.94 662.48 1463.4 657.18 1470.5 652.643C1477.58 648.078 1484.36 644.386 1490.45 641.29C1496.54 638.2 1501.98 635.769 1506.49 633.885C1511.01 631.994 1514.65 630.699 1517.13 629.84C1519.61 628.988 1520.98 628.586 1520.98 628.586C1521.54 628.426 1522.11 628.738 1522.28 629.292C1522.42 629.791 1522.13 630.352 1521.61 630.539Z"
      fill="white" />
    <path id="Vector_17"
      d="M1398.32 1224.43C1393.18 1227.63 1424.25 1164.2 1423.15 1110.35C1422.04 1056.49 1427.63 964.04 1470.03 905.964C1512.44 847.881 1562.8 839.278 1630.24 884.539C1686.44 922.257 1721.15 940.842 1740.9 943.349C1745.8 943.973 1748.65 949.237 1746.61 953.726C1735.75 977.603 1704.19 1032.93 1644.62 1033.44C1568.63 1034.07 1473.44 991.45 1448.42 1034.43C1423.4 1077.41 1428.62 1100.1 1429.14 1119.59C1429.67 1139.08 1432.32 1203.31 1398.32 1224.43Z"
      fill="url(#paint8_linear_4505_304)" />
    <path id="Vector_18"
      d="M1612.05 953.677C1602.74 947.298 1592.82 941.721 1582.63 936.9C1572.44 932.065 1561.8 928.207 1550.89 925.775C1540.02 923.351 1528.71 922.554 1517.95 924.764C1516.61 925.096 1515.26 925.325 1513.96 925.727C1512.66 926.149 1511.35 926.503 1510.04 926.974L1502.21 929.973L1494.62 933.506L1487.33 937.607C1477.85 943.446 1469.39 950.92 1462.46 959.655C1455.52 968.397 1449.93 978.199 1445.5 988.527L1443.82 992.399C1443.25 993.681 1442.85 995.038 1442.35 996.355C1441.42 999.015 1440.4 1001.65 1439.54 1004.33C1437.97 1009.74 1436.25 1015.13 1435.02 1020.65C1432.19 1031.62 1430.47 1042.84 1428.71 1054.06V1054.08C1428.64 1054.51 1428.23 1054.82 1427.78 1054.75C1427.36 1054.68 1427.06 1054.29 1427.11 1053.87C1428.32 1042.54 1429.77 1031.2 1432.23 1020.02C1432.85 1017.23 1433.31 1014.39 1434.12 1011.64L1436.38 1003.35C1437.2 1000.6 1438.18 997.899 1439.07 995.177C1439.55 993.826 1439.93 992.434 1440.5 991.111L1442.13 987.114C1446.47 976.481 1451.93 966.153 1459.15 957.037C1466.31 947.893 1475.11 940.003 1484.97 933.838L1492.53 929.516L1500.39 925.789L1508.48 922.63C1509.85 922.132 1511.31 921.758 1512.71 921.321C1514.13 920.899 1515.59 920.656 1517.02 920.317C1528.65 918.052 1540.55 919.049 1551.81 921.675C1563.11 924.328 1573.83 928.761 1584.07 933.935C1589.19 936.526 1594.15 939.415 1598.99 942.483C1603.83 945.559 1608.55 948.78 1613.04 952.375C1613.4 952.666 1613.46 953.192 1613.18 953.553C1612.9 953.899 1612.41 953.968 1612.05 953.719V953.677Z"
      fill="white" />
    <path id="Vector_19" fill-rule="evenodd" clip-rule="evenodd"
      d="M1217.42 815.181H1254.12V901.598L1276.89 901.987C1277.41 901.995 1277.96 902.349 1277.96 902.794V909.858C1277.96 910.311 1277.45 910.689 1276.9 910.689L1195.29 911.282C1193.46 911.298 1191.73 909.841 1191.73 908.03V903.979C1191.73 903.082 1192.31 902.218 1192.96 901.576C1193.61 900.933 1194.6 900.579 1195.5 900.596L1217.42 900.97V815.181Z"
      fill="#B1E1E5" />
    <path id="Vector_20"
      d="M1463.01 638L1152.57 641.845C1150.85 641.87 1148.8 643.179 1147.98 644.776L1063.34 811.59C1062.52 813.212 1063.24 814.538 1064.96 814.546L1374.95 816.406C1376.79 816.415 1378.95 815.065 1379.77 813.385L1464.87 640.948C1465.68 639.301 1464.85 637.976 1463.01 638Z"
      fill="#B1E1E5" />
    <path id="Vector_21" fill-rule="evenodd" clip-rule="evenodd"
      d="M1358.34 651.074L1446.48 650.086C1448.31 650.07 1449.13 651.387 1448.32 653.042L1428.78 692.601C1427.96 694.256 1425.81 695.614 1423.98 695.622L1335.87 696.199C1334.06 696.207 1333.27 694.881 1334.09 693.243L1353.6 654.071C1354.42 652.441 1356.55 651.091 1358.34 651.074ZM1342.72 651.247L1256.44 652.211C1254.68 652.227 1252.6 653.561 1251.78 655.174L1232.3 693.935C1231.48 695.557 1232.25 696.866 1234.01 696.857L1320.25 696.298C1322.05 696.289 1324.17 694.947 1324.98 693.309L1344.49 654.17C1345.31 652.532 1344.52 651.223 1342.72 651.247ZM1241.16 652.375L1156.68 653.322C1154.96 653.338 1152.9 654.656 1152.09 656.261L1132.64 694.618C1131.83 696.223 1132.56 697.516 1134.29 697.508L1218.73 696.956C1220.48 696.948 1222.57 695.622 1223.38 693.992L1242.86 655.265C1243.68 653.651 1242.91 652.359 1241.16 652.375ZM1214.59 705.189L1130.16 705.666C1128.43 705.675 1126.37 706.992 1125.56 708.597L1106.02 747.135C1105.21 748.749 1105.94 750.058 1107.66 750.058L1192.06 749.984C1193.82 749.984 1195.91 748.659 1196.72 747.028L1216.29 708.12C1217.1 706.49 1216.34 705.181 1214.59 705.189ZM1229.86 705.107L1316.1 704.621C1317.9 704.604 1318.69 705.93 1317.86 707.576L1298.26 746.897C1297.43 748.543 1295.32 749.885 1293.52 749.885L1207.31 749.967C1205.56 749.967 1204.79 748.642 1205.61 747.012L1225.19 708.07C1226.01 706.44 1228.1 705.115 1229.86 705.107ZM1419.82 704.036L1331.71 704.53C1329.92 704.539 1327.79 705.881 1326.98 707.527L1307.37 746.888C1306.54 748.535 1307.34 749.877 1309.14 749.869L1397.22 749.786C1399.05 749.786 1401.21 748.436 1402.03 746.765L1421.66 707.017C1422.48 705.362 1421.65 704.02 1419.82 704.036ZM1103.5 758.25H1187.89C1189.65 758.25 1190.4 759.567 1189.59 761.205L1169.92 800.295C1169.1 801.933 1167.01 803.259 1165.25 803.251L1080.9 802.855C1079.18 802.847 1078.45 801.522 1079.27 799.9L1098.9 761.181C1099.72 759.559 1101.78 758.25 1103.5 758.25ZM1289.37 758.242H1203.17C1201.4 758.242 1199.31 759.567 1198.49 761.197L1178.83 800.328C1178.01 801.966 1178.76 803.308 1180.52 803.316L1266.69 803.728C1268.48 803.736 1270.6 802.403 1271.42 800.748L1291.12 761.238C1291.95 759.583 1291.15 758.242 1289.37 758.242ZM1304.97 758.242H1393.04C1394.87 758.242 1395.69 759.592 1394.86 761.255L1375.13 801.192C1374.31 802.864 1372.15 804.214 1370.32 804.206L1279.03 803.777L1300.23 761.23C1301.05 759.584 1303.17 758.242 1304.97 758.242Z"
      fill="url(#paint9_linear_4505_304)" />
    <path id="Vector_22" d="M1253.86 816H1218.86L1253.86 845V816Z" fill="url(#paint10_linear_4505_304)" />
    <path id="Vector_23" d="M896.826 851.043L907.723 348.488H937.624V863.271L896.826 851.043Z"
      fill="url(#paint11_linear_4505_304)" />
    <path id="Vector_24"
      d="M951.809 863.285C951.809 871.207 948.053 877.114 943.412 877.114H889.963C885.322 877.114 881.565 871.207 881.565 863.285C881.565 855.363 885.322 849.456 889.963 849.456H943.412C948.053 849.456 951.809 855.363 951.809 863.285Z"
      fill="#277192" />
    <path id="Vector_25" fill-rule="evenodd" clip-rule="evenodd"
      d="M990.42 905.181H1027.12V991.598L1049.89 991.987C1050.41 991.995 1050.96 992.349 1050.96 992.794V999.858C1050.96 1000.31 1050.45 1000.69 1049.9 1000.69L968.29 1001.28C966.461 1001.3 964.731 999.841 964.731 998.03V993.979C964.731 993.082 965.308 992.218 965.959 991.576C966.609 990.933 967.598 990.579 968.504 990.596L990.42 990.97V905.181Z"
      fill="#B1E1E5" />
    <path id="Vector_26"
      d="M1236.01 728L925.573 731.845C923.851 731.87 921.799 733.179 920.984 734.776L836.34 901.59C835.516 903.212 836.241 904.538 837.963 904.546L1147.95 906.406C1149.79 906.415 1151.95 905.065 1152.77 903.385L1237.87 730.948C1238.68 729.301 1237.85 727.976 1236.01 728Z"
      fill="#B1E1E5" />
    <path id="Vector_27" fill-rule="evenodd" clip-rule="evenodd"
      d="M1131.34 741.074L1219.48 740.086C1221.31 740.07 1222.13 741.387 1221.32 743.042L1201.78 782.601C1200.96 784.256 1198.81 785.614 1196.98 785.622L1108.87 786.199C1107.06 786.207 1106.27 784.881 1107.09 783.243L1126.6 744.071C1127.42 742.441 1129.55 741.091 1131.34 741.074ZM1115.72 741.247L1029.44 742.211C1027.68 742.227 1025.6 743.561 1024.78 745.174L1005.3 783.935C1004.48 785.557 1005.25 786.866 1007.01 786.857L1093.25 786.298C1095.05 786.289 1097.17 784.947 1097.98 783.309L1117.49 744.17C1118.31 742.532 1117.52 741.223 1115.72 741.247ZM1014.16 742.375L929.685 743.322C927.963 743.338 925.903 744.656 925.088 746.261L905.645 784.618C904.829 786.223 905.562 787.516 907.292 787.508L991.73 786.956C993.485 786.948 995.569 785.622 996.385 783.992L1015.86 745.265C1016.68 743.651 1015.91 742.359 1014.16 742.375ZM987.585 795.189L903.156 795.666C901.434 795.675 899.374 796.992 898.558 798.597L879.025 837.135C878.209 838.749 878.942 840.058 880.664 840.058L965.061 839.984C966.815 839.984 968.908 838.659 969.724 837.028L989.29 798.12C990.098 796.49 989.34 795.181 987.585 795.189ZM1002.86 795.107L1089.1 794.621C1090.9 794.604 1091.69 795.93 1090.86 797.576L1071.26 836.897C1070.43 838.543 1068.32 839.885 1066.52 839.885L980.31 839.967C978.555 839.967 977.789 838.642 978.613 837.012L998.188 798.07C999.012 796.44 1001.1 795.115 1002.86 795.107ZM1192.82 794.036L1104.71 794.53C1102.92 794.539 1100.79 795.881 1099.98 797.527L1080.37 836.888C1079.54 838.535 1080.34 839.877 1082.14 839.869L1170.22 839.786C1172.05 839.786 1174.21 838.436 1175.03 836.765L1194.66 797.017C1195.48 795.362 1194.65 794.02 1192.82 794.036ZM876.503 848.25H960.891C962.646 848.25 963.404 849.567 962.588 851.205L942.923 890.295C942.099 891.933 940.006 893.259 938.251 893.251L853.904 892.855C852.182 892.847 851.449 891.522 852.273 889.9L871.897 851.181C872.721 849.559 874.781 848.25 876.503 848.25ZM1062.37 848.242H976.166C974.403 848.242 972.31 849.567 971.495 851.197L951.829 890.328C951.005 891.966 951.763 893.308 953.518 893.316L1039.69 893.728C1041.48 893.736 1043.6 892.403 1044.42 890.748L1064.12 851.238C1064.95 849.583 1064.15 848.242 1062.37 848.242ZM1077.97 848.242H1166.04C1167.87 848.242 1168.69 849.592 1167.86 851.255L1148.13 891.192C1147.31 892.864 1145.15 894.214 1143.32 894.206L1052.03 893.777L1073.23 851.23C1074.05 849.584 1076.17 848.242 1077.97 848.242Z"
      fill="url(#paint12_linear_4505_304)" />
    <path id="Vector_28" d="M1026.86 906H991.863L1026.86 935V906Z" fill="url(#paint13_linear_4505_304)" />
    <path id="Vector_29"
      d="M409.462 959.97C409.462 959.97 407.449 970.75 406.413 981.433C406.007 985.605 409.195 989.267 413.377 989.479C427.603 990.206 458.036 991.649 468.965 991.267C470.607 991.207 471.698 989.539 471.104 988.006C470.607 986.72 469.638 985.677 468.389 985.089L418.323 961.492L409.462 959.97Z"
      fill="#27627C" />
    <path id="Vector_30"
      d="M407.964 953.61L409.371 966.542C409.371 966.542 418.141 970.726 424.196 966.167L420.687 951.736L407.964 953.61Z"
      fill="#FFDDC3" />
    <path id="Vector_31"
      d="M411.432 710.776C410.741 714.141 406.274 879.076 423.197 953.167C423.475 954.374 422.851 955.617 421.7 956.071C418.984 957.151 413.668 958.703 407.316 958.854C405.346 958.903 403.595 957.605 403.061 955.714C398.188 938.513 374.858 852.35 372.494 770.231C369.852 678.472 372.525 767.109 372.525 767.109L375.131 710.431L411.432 710.776Z"
      fill="url(#paint14_linear_4505_304)" />
    <path id="Vector_32"
      d="M351.565 965.057C351.565 965.057 348.48 970.477 345.401 984.938C344.843 987.551 346.649 990.073 349.304 990.358C354.002 990.867 361.227 991.528 367.021 991.546C369.694 991.552 371.797 989.248 371.5 986.593C370.906 981.3 368.991 972.605 362.881 965.784L351.565 965.057Z"
      fill="#27627C" />
    <path id="Vector_33"
      d="M349.062 948.414L352.456 967.979C352.456 967.979 355.971 970.647 362.99 968.804L361.481 947.771L349.062 948.414Z"
      fill="url(#paint15_linear_4505_304)" />
    <path id="Vector_34"
      d="M341.612 715.172C326.368 802.068 342.685 930.315 348.365 955.44C348.71 956.98 349.941 958.169 351.492 958.442C354.129 958.902 358.475 959.303 362.772 958.096C364.251 957.684 365.306 956.356 365.379 954.822C366.367 934.565 366.124 810.132 380.029 761.088C380.732 758.602 382.277 756.443 384.393 754.964L410.644 736.671L412.929 706.72L341.612 715.172Z"
      fill="url(#paint16_linear_4505_304)" />
    <path id="Vector_35"
      d="M563.277 488.697C559.083 483.532 553.689 485.902 553.689 485.902C547.076 512.707 513.527 534.171 479.178 544.49C481.323 554.04 486.318 570.204 497.125 582.973C554.264 551.548 563.277 488.697 563.277 488.697Z"
      fill="url(#paint17_linear_4505_304)" />
    <path id="Vector_36"
      d="M562.235 489.989C562.665 491.407 557.501 493.505 554.531 487.703C554.452 484.932 552.883 473.06 554.556 470.817C563.478 458.891 580.692 444 580.692 444C583.553 446.874 581.146 449.651 581.146 449.651L572.782 458.206C574.485 461.353 576.57 464.02 577.528 467.816C578.249 470.69 577.764 473.752 576.291 476.353C574.812 478.96 572.794 482.349 570.897 484.993C567.296 490.001 562.235 489.989 562.235 489.989Z"
      fill="#FFE7D6" />
    <path id="Vector_37"
      d="M569.109 463.772L561.502 470.102L559.071 476.45L565.733 483.98C565.733 483.98 568.115 471.357 569.824 468.635C571.527 465.918 570.666 464.585 569.109 463.772Z"
      fill="#FFE7D6" />
    <path id="Vector_38" fill-rule="evenodd" clip-rule="evenodd"
      d="M344.067 561.618C344.067 561.618 391.854 550.007 435.052 551.135C448.375 551.487 463.855 549.098 479.178 544.496C481.324 554.045 486.324 570.21 497.126 582.979C482.724 590.897 465.28 596.821 444.144 599.24C444.144 599.24 417.366 687.416 411.505 718.78C411.505 718.78 373.64 732.561 340.273 723.467C340.273 723.467 334.932 676.162 337.604 621.206C334.609 624.84 332.286 628.867 331.472 633.115C317.955 626.124 304.099 624.008 296.48 623.371C303.443 588.698 343.978 561.678 344.067 561.619V561.618Z"
      fill="white" />
    <path id="Vector_39"
      d="M395.127 643.337C395.127 643.337 349.571 668.517 334.496 646.502C331.369 641.931 330.647 637.408 331.472 633.115C317.955 626.124 304.099 624.008 296.48 623.372C294.377 633.837 295.328 644.999 301.384 656.325C327.696 705.581 401.018 654.566 401.018 654.566L395.127 643.337Z"
      fill="#FFE7D6" />
    <path id="Vector_40"
      d="M391.623 515.63L377.494 555.264C377.258 555.919 377.525 556.653 378.131 556.998C381.858 559.108 395.302 565.226 411.668 555.064C413.371 554.003 414.541 552.263 414.819 550.274L419.602 515.897L391.623 515.63Z"
      fill="url(#paint18_linear_4505_304)" />
    <path id="Vector_41"
      d="M421.886 479.093C421.886 479.093 436.712 507.663 434.669 519.128C432.627 530.593 413.922 529.587 397.678 520.104L386.555 489.304L421.886 479.093Z"
      fill="#FFE7D6" />
    <path id="Vector_42"
      d="M398.539 505.037C399.205 504.746 399.46 503.94 399.066 503.328C397.872 501.466 395.641 497.677 394.95 494.366C394.95 494.366 392.253 492.602 401.897 490.389C411.54 488.176 425.923 484.738 429.015 476.577C432.033 468.616 424.499 448.463 412.019 464.348C411.546 464.954 410.625 464.954 410.164 464.342C408.17 461.692 402.909 456.181 395.502 459.419C388.574 462.45 387.744 467.501 387.816 470.053C387.835 470.805 387.162 471.381 386.428 471.236C382.943 470.538 374.579 469.884 370.59 478.439C367.305 485.484 369.36 489.51 371.245 491.486C371.857 492.129 371.578 493.172 370.724 493.421C368.426 494.1 365.444 496.016 365.687 501.394C366.026 508.827 374.336 508.251 376.706 507.936C377.094 507.881 377.482 508.02 377.743 508.312C379.749 510.573 388.792 520.189 398.666 521.432C399.521 521.541 400.193 520.698 399.921 519.88L395.763 507.402C395.569 506.82 395.854 506.189 396.411 505.947L398.539 505.037Z"
      fill="#FDD023" />
    <path id="Vector_43"
      d="M400.242 506.82C400.242 506.82 389.562 499.338 388.719 505.547C387.877 511.749 398.314 514.635 403.515 512.368L400.242 506.82Z"
      fill="#FFDDC4" />
    <path id="Vector_44"
      d="M385.818 683.135L410.633 596.451C410.912 595.469 411.754 594.747 412.772 594.632C417.27 594.105 430.295 592.631 445.339 591.364C463.456 589.83 484.501 588.587 497.072 589.648C498.86 589.8 499.939 591.691 499.145 593.298C491.993 607.771 462.584 666.625 447.855 685.912C447.364 686.549 446.612 686.925 445.806 686.919L388.23 686.385C386.557 686.355 385.357 684.748 385.818 683.135Z"
      fill="url(#paint19_linear_4505_304)" />
    <path id="Vector_45"
      d="M391.813 662.193C391.813 662.193 388.358 647.975 389.752 642.93C391.146 637.886 393.849 631.398 402.85 632.841C411.857 634.284 422.476 638.08 422.476 638.08C422.476 638.08 421.937 644.652 415.094 642.53L419.337 645.817C419.337 645.817 418.731 651.079 412.948 648.266L416.894 652.619C416.894 652.619 414.409 656.942 410.16 654.171C405.917 651.395 403.875 663.903 391.813 662.193Z"
      fill="#FFE7D6" />
    <path id="Vector_46"
      d="M296.5 642C294.5 638.8 295.666 628.334 296.5 623.5C305.7 622.3 323.666 629.667 331.5 633.5L296.5 642Z"
      fill="url(#paint20_linear_4505_304)" />
    <path id="Vector_47"
      d="M291.091 986.721C275.289 986.721 268.3 985.362 265.173 984.126C265.779 986.721 268.088 988.77 271.01 988.77H326.907C328.792 988.77 329.98 986.969 329.525 985.338C323.155 985.854 309.626 986.721 291.091 986.721Z"
      fill="#10475F" />
    <path id="Vector_48"
      d="M329.531 985.338C329.44 985.011 329.307 984.683 329.076 984.386C324.815 978.948 316.263 970.411 304.632 970.574C287.587 970.817 281.641 972.666 268.397 970.677L265.27 981.039C264.949 982.094 264.949 983.149 265.173 984.131C268.3 985.368 275.289 986.726 291.091 986.726C309.626 986.72 323.155 985.853 329.531 985.338Z"
      fill="#27627C" />
    <path id="Vector_49"
      d="M272.228 959.516L268.392 972.563C268.392 972.563 276.889 976.432 284.363 973.327L285.83 962.02L272.228 959.516Z"
      fill="#FFDDC3" />
    <path id="Vector_50"
      d="M387.907 976.412C376.534 987.384 370.563 991.268 367.46 992.548C369.689 993.983 372.769 993.85 374.867 991.821L415.102 953.009C416.456 951.7 416.069 949.586 414.616 948.731C410.389 953.522 401.249 963.543 387.907 976.412Z"
      fill="#10475F" />
    <path id="Vector_51"
      d="M414.623 948.73C414.327 948.556 414.01 948.421 413.634 948.369C406.812 947.43 394.757 947.25 386.499 955.45C374.399 967.457 371.394 972.91 360.493 980.681L365.398 990.275C365.9 991.252 366.621 992.015 367.467 992.553C370.57 991.267 376.541 987.384 387.914 976.417C401.25 963.543 410.389 953.522 414.623 948.73Z"
      fill="#27627C" />
    <path id="Vector_52"
      d="M190.177 814C190.177 814 284.775 821.724 304.177 830.861C323.585 839.999 302.5 966.966 302.5 966.966C302.5 966.966 283.053 970.616 271.301 966.966C271.301 966.966 283.356 872.454 274.386 851.961L171.963 835.203L190.177 814Z"
      fill="url(#paint21_linear_4505_304)" />
    <path id="Vector_53"
      d="M349.504 963.608C350.452 964.326 360.491 980.675 360.491 980.675C360.491 980.675 369.753 977.772 371.136 971.619L361.236 956.937L349.504 963.608Z"
      fill="url(#paint22_linear_4505_304)" />
    <path id="Vector_54"
      d="M133.208 810.054C133.208 810.054 130.123 817.475 130.25 827.334C130.426 840.97 141.384 852.035 154.998 852.714L266.828 857.813C269.192 857.922 271.186 859.553 271.78 861.845C274.41 872.013 281.956 907.517 344.739 969.815C346.412 971.47 349.012 971.755 351 970.5L368.5 958.5C369.439 957.906 369.736 956.675 369.179 955.717L300.801 846.572C297.383 840.927 291.885 836.847 285.49 835.216L190.177 810.842L133.208 810.054Z"
      fill="white" />
    <path id="Vector_55"
      d="M243.407 636.316C243.407 636.316 231.43 657.5 219.217 667.765L244.462 681.856C244.462 681.856 250.153 659.428 263.149 652.856L243.407 636.316Z"
      fill="#F2C9AA" />
    <path id="Vector_56"
      d="M131.171 810.842C131.171 810.842 161.362 818.202 190.177 810.842C190.177 810.842 230.496 756.62 246.098 741.862C246.098 741.862 270.955 784.691 326.343 790.257L323.538 784.647C323.538 784.647 285.369 759.469 271.792 728.226C258.221 696.989 252.765 683.662 240.419 675.513C232.727 670.439 228.12 666.97 225.744 665.079C224.441 664.042 222.641 663.927 221.223 664.794C208.112 672.785 146.445 715.033 131.171 810.842Z"
      fill="#355765" />
    <path id="Vector_57"
      d="M323.04 784.747L329.277 783.086L348.206 778.702C350.485 778.175 352.88 778.581 354.862 779.824L371.136 790.064L326.192 789.985L323.04 784.747Z"
      fill="#F2C9AA" />
    <path id="Vector_58"
      d="M262.434 604.545C262.434 604.545 274.078 623.904 276.096 634.606C278.115 645.307 281.358 651.995 269.187 655.808C257.016 659.622 245.699 654.796 238.602 644.81C238.602 644.81 227.516 629.44 228.619 622.401C229.722 615.355 262.434 604.545 262.434 604.545Z"
      fill="#FFDEC5" />
    <path id="Vector_59"
      d="M241.838 636.522L243.414 636.316C243.414 636.316 235.171 623.856 240.565 620.764C245.96 617.672 267.938 610.087 271.756 601.428C275.436 593.08 269.932 583.651 263.295 581.681C262.877 581.554 262.434 581.802 262.283 582.214L261.895 583.263C261.628 583.985 260.622 584.015 260.313 583.312C260.022 582.645 259.064 582.615 258.767 583.282C257.591 585.877 254.064 590.309 243.493 593.734C228.491 598.597 219.151 606.164 220.303 616.823C220.375 617.496 219.702 617.963 219.084 617.69C217.86 617.15 215.999 617.059 213.841 619.424C210.089 623.528 213.029 632.514 223.279 638.868C223.763 639.171 223.854 639.856 223.418 640.232C221.884 641.548 219.727 644.477 226.661 647.084C233.758 649.751 237.626 648.848 239.056 648.278C239.444 648.12 239.662 647.726 239.583 647.32L237.759 637.977C237.662 637.492 237.995 637.031 238.486 636.964L241.838 636.522Z"
      fill="url(#paint23_linear_4505_304)" />
    <path id="Vector_60"
      d="M242.481 638.444C242.481 638.444 237.341 625.772 231.946 630.228C226.552 634.678 236.935 644.525 241.723 644.391L242.481 638.444Z"
      fill="#FFDEC5" />
    <path id="Vector_61"
      d="M610.633 804.803C610.633 804.803 595.577 807.137 578.642 818.457C575.975 820.24 574.514 823.344 574.914 826.527C576.945 842.588 585.279 894.579 612.761 945.364C614.209 948.044 614.628 951.16 613.985 954.137L609.209 976.365L600.353 984.671H623.162L638.351 943.557L631.86 941.502C626.823 939.907 623.368 935.275 623.277 929.994L622.513 885.891C623.162 866.24 610.47 852.683 610.47 852.683L646.898 850.913L610.633 804.803Z"
      fill="url(#paint24_linear_4505_304)" />
    <path id="Vector_62"
      d="M591.462 988.685C589.383 991.407 613.822 994.991 626.168 989.043C626.168 989.043 643.279 959.261 643.279 943.921C643.279 943.921 641.921 940.793 631.872 941.502C631.872 941.502 626.126 976.771 620.059 980.718C613.991 984.671 603.081 981.118 603.081 981.118C603.081 981.118 594.523 984.671 591.462 988.685Z"
      fill="#27627C" />
    <path id="Vector_63"
      d="M642.303 853.338C642.109 853.005 603.081 848.645 603.081 848.645C603.081 848.645 604.36 860.517 600.365 876.857C596.371 893.197 539.074 963.99 539.074 963.99L545.081 983.04C526.503 989.515 508.229 990.546 490.251 986.338L527.485 963.99C527.485 963.99 562.331 845.201 583.679 824.005L622.798 810.466L642.303 853.338Z"
      fill="#FFE7D6" />
    <path id="Vector_64"
      d="M729.828 784.219C729.828 784.219 752.315 817.675 754.157 832.936C756 848.197 747.999 854.399 724.403 855.418C700.812 856.442 637.824 856.424 637.824 856.424L584.067 810.472C584.067 810.472 623.241 796.49 633.43 792.537C643.619 788.572 729.828 784.219 729.828 784.219Z"
      fill="url(#paint25_linear_4505_304)" />
    <path id="Vector_65"
      d="M542.814 976.62C542.814 976.62 549.281 982.889 544.911 989.861C544.911 989.861 493.669 998.944 479.759 994.827C479.759 994.827 482.65 988.23 498.312 980.724L497.155 981.609C495.694 982.731 496.548 985.071 498.391 984.968C508.713 984.38 530.079 982.489 542.814 976.62Z"
      fill="#27627C" />
    <path id="Vector_66"
      d="M632.43 572.053C678.392 564.237 700.031 601.738 698.449 609.614C698.237 610.657 699.225 611.542 700.255 611.269C705.534 609.85 717.19 608.055 724.415 617.114C730.798 625.111 726.027 632.66 722.142 636.801C721.203 637.801 721.991 639.426 723.354 639.256C733.058 638.031 754.14 637.74 757.588 657.494C760.807 675.914 747.987 681.11 740.387 682.577C739.102 682.826 738.798 684.517 739.908 685.221C743.702 687.628 748.096 692.599 746.32 702.416C743.538 717.798 713.39 716.543 709.862 716.337C709.638 716.324 709.426 716.258 709.232 716.149L660.936 688.598C660.56 688.386 660.299 688.01 660.227 687.585L650.48 631.259C650.401 630.804 650.541 630.337 650.862 630.004L619.38 585.561C607.942 583.87 631.884 572.144 632.43 572.053Z"
      fill="url(#paint26_linear_4505_304)" />
    <path id="Vector_67"
      d="M669.015 779.787C669.015 779.787 642.831 754.843 629.945 738.328C622.98 729.397 620.792 717.64 624.011 706.781C629.896 686.949 640.352 666.413 641.309 663.212C642.77 658.313 672.131 658.513 672.131 658.513C672.131 658.513 729.907 696.019 752.606 759.555L720 769.5C720 769.5 712.026 742.178 697.121 726.08C697.121 726.08 722.912 760.161 723.821 774.112L669.015 779.787Z"
      fill="url(#paint27_linear_4505_304)" />
    <path id="Vector_68" d="M715.989 772C716.389 758.084 705.496 736.868 700 728L695.5 775.5L715.989 772Z"
      fill="url(#paint28_linear_4505_304)" fill-opacity="0.8" />
    <path id="Vector_69"
      d="M637.758 635.831C638.067 636.849 645.728 662.26 646.328 662.787C646.928 663.315 663.136 664.188 670.761 658.973L651.838 621.952L637.758 635.831Z"
      fill="url(#paint29_linear_4505_304)" />
    <path id="Vector_70"
      d="M607.039 603.18C607.039 603.18 603.336 617.738 613.579 637.316C623.823 656.893 635.424 656.875 641.764 650.606C648.104 644.337 655.923 633.702 654.069 614.773C652.208 595.844 612.385 584.658 607.039 603.18Z"
      fill="#FFE7D6" />
    <path id="Vector_71"
      d="M639.891 615.804C639.891 615.804 622.889 589.805 606.948 610.268L606.657 617.708C606.657 617.708 587.989 615.488 591.256 598.366C594.523 581.244 610.658 570.537 631.436 577.958C652.214 585.379 664.124 592.982 665.464 607.879C666.803 622.776 654.959 619.508 654.959 619.508C654.959 619.508 651.092 609.019 645.601 607.928C640.109 606.836 641.534 615.016 641.534 615.016L639.891 615.804Z"
      fill="#FFD640" />
    <path id="Vector_72"
      d="M615.677 781.636L634.915 763.089L661.53 774.336C661.53 774.336 688.018 778.441 703.183 774.336C718.342 770.231 718.342 770.231 718.342 770.231L752.606 759.56L757.989 774.772C759.352 778.635 757.983 782.921 754.643 785.298C751.679 787.402 748.206 789.718 745.987 790.688C741.478 792.665 634.764 789.324 634.764 789.324L615.677 781.636Z"
      fill="#FFE7D6" />
    <g id="small_fan">
      <path id="Vector_108"
        d="M1274.47 203.032C1270.14 181.778 1198.89 304.679 1175.23 334.911C1151.57 365.142 1170.02 374.636 1170.02 374.636L1173.12 377.561C1173.12 377.561 1173.13 377.561 1173.13 377.571C1182.47 379.393 1192.04 375.709 1196.65 367.511C1218.53 328.595 1278 220.38 1274.47 203.032Z"
        fill="url(#paint51_linear_4505_304)" />
      <path id="Vector_109"
        d="M1273.84 575.51C1294.58 581.906 1220.81 460.494 1205.6 425.252C1190.4 390.01 1173.45 401.913 1173.45 401.913L1169.63 403.501L1169.62 403.511C1162.93 410.131 1161.95 420.717 1166.94 428.693C1190.62 466.526 1256.91 570.287 1273.84 575.51Z"
        fill="url(#paint52_linear_4505_304)" />
      <path id="Vector_110"
        d="M950.132 424.39C931.912 412.609 1072.42 391.203 1109.23 380.231C1146.03 369.26 1147.55 389.897 1147.55 389.897L1148.55 393.844V393.854C1148.55 403.226 1140.5 410.767 1131.17 412.062C1086.94 418.196 965.011 434.005 950.132 424.39Z"
        fill="url(#paint53_linear_4505_304)" />
      <path id="Vector_111"
        d="M1184.79 396.875C1180.48 408.291 1167.74 414.061 1156.32 409.759C1144.89 405.457 1139.12 392.725 1143.43 381.308C1147.73 369.892 1160.47 364.123 1171.9 368.425C1183.31 372.726 1189.08 385.458 1184.79 396.875Z"
        fill="url(#paint54_linear_4505_304)" />
      <path id="Vector_112"
        d="M1163.65 404.434C1161.8 404.434 1159.93 404.11 1158.1 403.421C1149.95 400.355 1145.81 391.236 1148.88 383.098C1150.37 379.151 1153.3 376.024 1157.14 374.283C1160.98 372.542 1165.28 372.401 1169.23 373.889C1173.18 375.376 1176.31 378.301 1178.05 382.147C1179.79 385.983 1179.93 390.274 1178.44 394.211C1176.06 400.527 1170.04 404.434 1163.65 404.434ZM1163.66 375.123C1161.75 375.123 1159.86 375.528 1158.08 376.338C1154.78 377.825 1152.27 380.508 1151 383.888C1148.36 390.872 1151.91 398.685 1158.9 401.317C1165.87 403.938 1173.7 400.406 1176.34 393.422C1177.61 390.042 1177.49 386.368 1176 383.078C1174.51 379.789 1171.83 377.279 1168.45 376.004C1166.89 375.407 1165.27 375.123 1163.66 375.123Z"
        fill="white" />
    </g>
    <g id="fan">
      <path id="Vector_103"
        d="M1076.64 75.4078C1070.74 46.4246 973.576 214.017 941.313 255.242C909.05 296.467 934.214 309.413 934.214 309.413L938.44 313.402C938.44 313.402 938.454 313.402 938.454 313.415C951.188 315.9 964.239 310.876 970.523 299.697C1000.36 246.63 1081.46 99.0639 1076.64 75.4078Z"
        fill="url(#paint47_linear_4505_304)" />
      <path id="Vector_104"
        d="M1075.78 583.332C1104.07 592.054 1003.47 426.491 982.732 378.434C962.002 330.377 938.882 346.608 938.882 346.608L933.675 348.774L933.661 348.788C924.546 357.815 923.206 372.251 930.015 383.127C962.305 434.717 1052.7 576.21 1075.78 583.332Z"
        fill="url(#paint48_linear_4505_304)" />
      <path id="Vector_105"
        d="M634.362 377.259C609.516 361.194 801.119 332.004 851.308 317.043C901.498 302.082 903.57 330.224 903.57 330.224L904.937 335.606V335.62C904.937 348.4 893.957 358.682 881.237 360.449C820.924 368.813 654.651 390.371 634.362 377.259Z"
        fill="url(#paint49_linear_4505_304)" />
      <path id="Vector_106"
        d="M954.349 339.739C948.479 355.307 931.104 363.174 915.525 357.308C899.946 351.442 892.074 334.08 897.944 318.512C903.814 302.944 921.188 295.077 936.767 300.943C952.332 306.808 960.205 324.171 954.349 339.739Z"
        fill="url(#paint50_linear_4505_304)" />
      <path id="Vector_107"
        d="M925.517 350.046C923.003 350.046 920.448 349.605 917.949 348.666C906.844 344.485 901.196 332.048 905.381 320.952C907.411 315.569 911.402 311.305 916.65 308.931C921.885 306.557 927.741 306.365 933.127 308.394C938.513 310.422 942.781 314.41 945.157 319.655C947.532 324.885 947.726 330.737 945.695 336.106C942.45 344.718 934.232 350.046 925.517 350.046ZM925.531 310.076C922.934 310.076 920.352 310.628 917.921 311.733C913.432 313.761 910.007 317.42 908.267 322.029C904.676 331.553 909.51 342.207 919.04 345.796C928.556 349.37 939.232 344.553 942.823 335.03C944.563 330.42 944.397 325.411 942.367 320.925C940.336 316.44 936.677 313.017 932.064 311.278C929.937 310.464 927.727 310.076 925.531 310.076Z"
        fill="white" />
    </g>
    <path id="Vector_73"
      d="M688.478 790.385C688.393 790.391 688.309 790.391 688.224 790.391L576.624 790.27C573.866 790.27 571.63 788.026 571.636 785.268C571.636 782.509 573.884 780.229 576.636 780.278L688.236 780.399C690.994 780.399 693.23 782.642 693.224 785.401C693.218 788.069 691.115 790.252 688.478 790.385Z"
      fill="url(#paint30_linear_4505_304)" />
    <path id="Vector_74"
      d="M688.478 790.385C688.393 790.391 688.309 790.391 688.224 790.391L576.624 790.27C573.866 790.27 571.63 788.026 571.636 785.268C571.636 782.509 573.884 780.229 576.636 780.278L688.236 780.399C690.994 780.399 693.23 782.642 693.224 785.401C693.218 788.069 691.115 790.252 688.478 790.385Z"
      fill="url(#paint31_linear_4505_304)" />
    <path id="Vector_75"
      d="M688.478 790.385C688.393 790.391 688.309 790.391 688.224 790.391L576.624 790.27C573.866 790.27 571.63 788.026 571.636 785.268C571.636 782.509 573.884 780.229 576.636 780.278L688.236 780.399C690.994 780.399 693.23 782.642 693.224 785.401C693.218 788.069 691.115 790.252 688.478 790.385Z"
      fill="url(#paint32_linear_4505_304)" />
    <path id="Vector_76"
      d="M476.304 689.028H569.241C576.096 689.028 582.34 692.987 585.261 699.19L628.229 790.324H512.732C508.314 790.324 504.344 787.626 502.719 783.515L469.4 699.184C467.473 694.309 471.067 689.028 476.304 689.028Z"
      fill="url(#paint33_linear_4505_304)" />
    <path id="Vector_77"
      d="M815.709 969.082C815.709 969.082 816.879 975.588 817.345 983.312C817.545 986.605 815.103 989.461 811.824 989.782C800.398 990.891 774.401 992.935 757.8 990.54C755.472 990.206 754.551 987.344 756.272 985.744C763.115 979.365 779.65 966.954 806.859 964.244L815.709 969.082Z"
      fill="#27627C" />
    <path id="Vector_78"
      d="M821.382 954.416L815.606 968.573C814.812 970.513 812.848 971.72 810.763 971.501C809.351 971.356 807.672 971.083 806.047 970.586C802.786 969.598 800.95 966.142 801.926 962.874L806.284 948.292L821.382 954.416Z"
      fill="#FFDDC3" />
    <path id="Vector_79"
      d="M920.119 980.36C920.119 980.36 908.555 990.036 904.051 1002.45C902.815 1005.87 905.433 1009.46 909.064 1009.46H932.86C936.345 1009.46 939.012 1006.33 938.406 1002.9C936.891 994.329 932.521 980.396 920.119 980.36Z"
      fill="#27627C" />
    <path id="Vector_80"
      d="M934.449 967.76C934.449 967.76 932.115 978.104 930.315 984.937C929.988 986.18 928.666 986.859 927.46 986.429C923.86 985.143 920.926 984.573 918.799 984.858C917.817 984.992 916.956 984.173 916.944 983.179L916.72 966.002L934.449 967.76Z"
      fill="#FFDDC3" />
    <path id="Vector_81"
      d="M872.939 735.034L802.599 949.699C802.599 949.699 816.091 958.539 822.516 958.169L906.064 785.655C906.064 785.655 920.684 891.954 913.598 968.27L937.528 970.095C937.528 970.095 976.441 775.075 946.965 708.278L872.939 735.034Z"
      fill="#355765" />
    <path id="Vector_82"
      d="M859.758 546.178C859.758 546.178 916.745 551.241 908.684 591.858C908.684 591.858 940.184 651.161 954.913 721.02C955.392 723.294 953.871 725.513 951.579 725.901L856.673 742.156C854.054 742.604 851.527 740.974 850.866 738.397L828.191 650.73L819.353 691.493L791.278 684.174L814.917 564.404C814.911 564.404 818.208 546.93 859.758 546.178Z"
      fill="url(#paint34_linear_4505_304)" />
    <path id="Vector_83" d="M819.5 692L796 663L822 680.5L819.5 692Z" fill="url(#paint35_linear_4505_304)"
      fill-opacity="0.4" />
    <path id="Vector_84"
      d="M833.433 777.028C836.421 775.385 839.925 774.93 843.234 775.755L849.835 777.398C851.241 777.75 852.629 776.78 852.793 775.343L859.624 692.414C868.17 696.47 880.493 695.985 884.56 695.688L868.831 789.5H813.795L833.433 777.028Z"
      fill="#FFDDC3" />
    <path id="Vector_85"
      d="M687.2 622.973L688.86 617.444C689.818 614.261 692.17 611.684 695.255 610.447L725.343 598.345C725.343 598.345 725.798 594.483 718.985 591.864C712.172 589.238 713.766 581.611 713.766 581.611C713.766 581.611 723.07 585.855 736.696 592.591C744.484 596.441 748.861 603.244 751.176 608.361L819.353 691.499L811.346 696.998C800.824 704.231 786.343 700.678 780.361 689.395L743.43 618.553C724.888 624.119 706.123 625.18 687.2 622.973Z"
      fill="#FFDDC3" />
    <path id="Vector_86"
      d="M841.295 507.393L858.824 556.467C858.824 556.467 843.301 568.606 831.972 564.501L823.141 536.368C823.141 536.374 829.887 501.99 841.295 507.393Z"
      fill="url(#paint36_linear_4505_304)" />
    <path id="Vector_87"
      d="M813.487 473.088C813.02 473.755 798.728 525.552 798.728 525.552L828.47 533.088L849.309 486.008C849.302 486.008 821.318 461.968 813.487 473.088Z"
      fill="#FFDDC3" />
    <path id="Vector_88"
      d="M838.113 493.162L829.082 518.803C828.967 519.131 828.809 519.434 828.609 519.719C827.385 521.465 822.724 527.164 817.184 522.035C812.159 517.385 807.504 513.213 803.207 512.461C801.279 512.122 799.412 513.304 798.891 515.19C797.594 519.895 794.866 530.554 793.909 540.182C793.715 542.134 795.066 543.898 796.994 544.262C802.8 545.36 815.117 547.336 825.397 546.603C826.791 546.506 828.015 545.669 828.597 544.396C831.428 538.199 840.089 519.404 843.314 514.541C846.338 509.975 853.769 510.097 856.885 510.37C857.909 510.46 858.909 510.127 859.679 509.454C862.401 507.065 867.583 500.96 860.285 493.66C858.758 492.132 858.794 489.664 860.37 488.185C863.504 485.238 866.85 480.005 861.625 473.53C856.315 466.946 849.308 468.001 845.017 469.571C843.284 470.208 841.386 469.474 840.447 467.885C839.907 466.982 838.974 466.297 837.35 466.436C835.161 466.624 833.319 464.799 833.355 462.604C833.428 458.384 831.913 453.049 824.591 450.775C811.595 446.743 803.51 459.3 802.71 468.667C801.916 478.035 816.25 481.606 824.675 480.97C831.082 480.484 835.846 486.833 837.762 489.907C838.368 490.889 838.489 492.083 838.113 493.162Z"
      fill="url(#paint37_linear_4505_304)" />
    <path id="Vector_89"
      d="M839.938 523.854C839.938 523.854 842.023 507.593 848.787 506.793C855.552 505.992 862.134 511.546 855.418 520.677C847.06 532.033 839.938 523.854 839.938 523.854Z"
      fill="url(#paint38_linear_4505_304)" />
    <path id="Vector_90" d="M857.5 716L859 693L884.5 696.5L857.5 716Z" fill="url(#paint39_linear_4505_304)" />
    <path id="Vector_91"
      d="M879.032 696.604C882.923 696.604 885.699 696.307 885.996 696.276L886.499 696.222L907.253 599.436C907.338 599.055 907.089 598.679 906.713 598.6C906.326 598.515 905.956 598.763 905.877 599.139L885.342 694.918C882.25 695.191 865.764 696.282 857.054 690.116L875.031 606.033L871.28 598.957C871.098 598.612 870.667 598.479 870.322 598.666C869.976 598.848 869.843 599.279 870.031 599.624L873.54 606.245L855.484 690.717L855.842 690.989C862.133 695.713 872.268 696.604 879.032 696.604Z"
      fill="url(#paint40_linear_4505_304)" />
    <path id="Vector_92" d="M381 763L374.5 797L396.5 756L381 763Z" fill="url(#paint41_linear_4505_304)" />
    <path id="Vector_93" d="M901.5 757.297L908 791.297L886 750.297L901.5 757.297Z"
      fill="url(#paint42_linear_4505_304)" />
    <path id="Vector_94" d="M690.98 885.063H680.882V987.161H690.98V885.063Z" fill="url(#paint43_linear_4505_304)" />
    <path id="Vector_95" d="M189.575 885.063H179.478V987.161H189.575V885.063Z" fill="url(#paint44_linear_4505_304)" />
    <path id="Vector_96"
      d="M729.827 989.637H641.066C641.066 985.993 644.018 983.041 647.661 983.041H723.226C726.875 983.041 729.827 985.993 729.827 989.637Z"
      fill="#10475F" />
    <path id="Vector_97"
      d="M228.422 989.637H139.662C139.662 985.993 142.613 983.041 146.256 983.041H221.822C225.471 983.041 228.422 985.993 228.422 989.637Z"
      fill="#10475F" />
    <path id="Vector_98"
      d="M742.998 874.093C742.998 880.089 738.094 884.994 732.1 884.994H642.302C636.308 884.994 631.404 880.089 631.404 874.093V864.234C631.404 858.238 636.308 853.333 642.302 853.333H732.1C738.094 853.333 742.998 858.238 742.998 864.234V874.093Z"
      fill="url(#paint45_linear_4505_304)" />
    <path id="Vector_99"
      d="M241.593 874.093C241.593 880.089 236.69 884.994 230.695 884.994H140.898C134.904 884.994 130 880.089 130 874.093V864.234C130 858.238 134.904 853.333 140.898 853.333H230.695C236.69 853.333 241.593 858.238 241.593 864.234V874.093Z"
      fill="url(#paint46_linear_4505_304)" />
    <path id="Vector_100"
      d="M886.305 794.46C886.674 793.193 886.171 791.883 884.935 790.889C883.698 789.894 881.856 789.318 879.916 789.318H221.817C219.259 789.318 216.883 790.179 215.507 791.61C214.131 793.041 213.943 794.836 215.016 796.37L222.15 806.61C223.781 808.957 227.32 810.454 231.218 810.454H875.4C879.025 810.454 882.134 808.751 882.825 806.392L886.305 794.46Z"
      fill="#31667C" />
    <path id="Vector_101" d="M344 810H318V991H344V810Z" fill="#0D3B4E" />
    <path id="Vector_102" d="M775 810H749V991H775V810Z" fill="#0D3B4E" />
  </g>
  <defs>
    <linearGradient id="paint0_linear_4505_304" x1="707" y1="27.4999" x2="706.979" y2="930.5"
      gradientUnits="userSpaceOnUse">
      <stop stop-color="#65B4D9" />
      <stop offset="1" stop-color="#65B4D9" stop-opacity="0" />
    </linearGradient>
    <linearGradient id="paint1_linear_4505_304" x1="606" y1="286.5" x2="55.6824" y2="844.318"
      gradientUnits="userSpaceOnUse">
      <stop stop-color="#27B0B0" />
      <stop offset="1" stop-color="#4A9CC7" />
    </linearGradient>
    <linearGradient id="paint2_linear_4505_304" x1="484.304" y1="165.802" x2="484.304" y2="944.5"
      gradientUnits="userSpaceOnUse">
      <stop stop-color="white" stop-opacity="0" />
      <stop offset="1" stop-color="#F3FFFD" />
    </linearGradient>
    <linearGradient id="paint3_linear_4505_304" x1="794.49" y1="224.406" x2="801.578" y2="44.9044"
      gradientUnits="userSpaceOnUse">
      <stop stop-color="#27B0B0" />
      <stop offset="1" stop-color="#4195C4" />
    </linearGradient>
    <linearGradient id="paint4_linear_4505_304" x1="1292.04" y1="584.837" x2="1217.69" y2="1086.32"
      gradientUnits="userSpaceOnUse">
      <stop stop-color="#27B0B0" />
      <stop offset="1" stop-color="#3A6AD9" />
    </linearGradient>
    <linearGradient id="paint5_linear_4505_304" x1="1195.4" y1="265.352" x2="1195.4" y2="925.5"
      gradientUnits="userSpaceOnUse">
      <stop stop-color="white" stop-opacity="0" />
      <stop offset="1" stop-color="#F0FDFC" />
    </linearGradient>
    <linearGradient id="paint6_linear_4505_304" x1="1166.3" y1="431.399" x2="1158.97" y2="821.867"
      gradientUnits="userSpaceOnUse">
      <stop stop-color="#2C87AE" />
      <stop offset="1" stop-color="#256F8E" />
    </linearGradient>
    <linearGradient id="paint7_linear_4505_304" x1="1398.97" y1="587" x2="1456.86" y2="944.53"
      gradientUnits="userSpaceOnUse">
      <stop stop-color="#29AAAA" />
      <stop offset="0.0001" stop-color="#72E0B9" />
      <stop offset="1" stop-color="#2C87AE" />
    </linearGradient>
    <linearGradient id="paint8_linear_4505_304" x1="1572.51" y1="855.681" x2="1560.9" y2="1128.72"
      gradientUnits="userSpaceOnUse">
      <stop stop-color="#6BD7B9" />
      <stop offset="0.0001" stop-color="#72E0B9" />
      <stop offset="1" stop-color="#2F8BAF" />
    </linearGradient>
    <linearGradient id="paint9_linear_4505_304" x1="1263.78" y1="650.086" x2="1263.78" y2="772.186"
      gradientUnits="userSpaceOnUse">
      <stop stop-color="#61AAD5" />
      <stop offset="1" stop-color="#2B83AA" />
    </linearGradient>
    <linearGradient id="paint10_linear_4505_304" x1="1236.36" y1="816" x2="1236.36" y2="857.5"
      gradientUnits="userSpaceOnUse">
      <stop stop-color="#92CBD0" />
      <stop offset="1" stop-color="#92CBD0" stop-opacity="0" />
    </linearGradient>
    <linearGradient id="paint11_linear_4505_304" x1="926.229" y1="382.712" x2="917.213" y2="863.271"
      gradientUnits="userSpaceOnUse">
      <stop stop-color="#2C87AE" />
      <stop offset="1" stop-color="#135C7C" />
    </linearGradient>
    <linearGradient id="paint12_linear_4505_304" x1="1036.78" y1="740.086" x2="1036.78" y2="862.186"
      gradientUnits="userSpaceOnUse">
      <stop stop-color="#61AAD5" />
      <stop offset="1" stop-color="#2B83AA" />
    </linearGradient>
    <linearGradient id="paint13_linear_4505_304" x1="1009.36" y1="906" x2="1009.36" y2="947.5"
      gradientUnits="userSpaceOnUse">
      <stop stop-color="#92CBD0" />
      <stop offset="1" stop-color="#92CBD0" stop-opacity="0" />
    </linearGradient>
    <linearGradient id="paint14_linear_4505_304" x1="395.522" y1="793.935" x2="417.227" y2="964.233"
      gradientUnits="userSpaceOnUse">
      <stop stop-color="#2B81A5" />
      <stop offset="1" stop-color="#225F78" />
    </linearGradient>
    <linearGradient id="paint15_linear_4505_304" x1="348.964" y1="958.512" x2="363.085" y2="958.646"
      gradientUnits="userSpaceOnUse">
      <stop stop-color="#FF928E" />
      <stop offset="1" stop-color="#FEB3B1" />
    </linearGradient>
    <linearGradient id="paint16_linear_4505_304" x1="371.45" y1="791.485" x2="405.36" y2="1169.12"
      gradientUnits="userSpaceOnUse">
      <stop stop-color="#2A80A4" />
      <stop offset="1" stop-color="#3E5B67" />
    </linearGradient>
    <linearGradient id="paint17_linear_4505_304" x1="530" y1="517" x2="423.5" y2="593.5" gradientUnits="userSpaceOnUse">
      <stop stop-color="#FFE7D6" />
      <stop offset="1" stop-color="#FFD3B1" />
    </linearGradient>
    <linearGradient id="paint18_linear_4505_304" x1="398.505" y1="515.63" x2="399" y2="544.5"
      gradientUnits="userSpaceOnUse">
      <stop stop-color="#FFC9A0" />
      <stop offset="1" stop-color="#FFE7D6" />
    </linearGradient>
    <linearGradient id="paint19_linear_4505_304" x1="431.723" y1="553.186" x2="442.565" y2="792.139"
      gradientUnits="userSpaceOnUse">
      <stop stop-color="#2B84AA" />
      <stop offset="1" stop-color="#267091" />
    </linearGradient>
    <linearGradient id="paint20_linear_4505_304" x1="313.448" y1="623.37" x2="313" y2="651"
      gradientUnits="userSpaceOnUse">
      <stop stop-color="#FFD7B8" />
      <stop offset="1" stop-color="#FFD7B8" stop-opacity="0" />
    </linearGradient>
    <linearGradient id="paint21_linear_4505_304" x1="240.986" y1="814" x2="240.986" y2="968.936"
      gradientUnits="userSpaceOnUse">
      <stop stop-color="#D0DFE2" />
      <stop offset="1" stop-color="#C1D1D6" />
    </linearGradient>
    <linearGradient id="paint22_linear_4505_304" x1="359.368" y1="957.107" x2="361.496" y2="980.584"
      gradientUnits="userSpaceOnUse">
      <stop stop-color="#F2C9AA" />
      <stop offset="1" stop-color="#FFDDC3" />
    </linearGradient>
    <linearGradient id="paint23_linear_4505_304" x1="212.277" y1="623.321" x2="269.628" y2="593.739"
      gradientUnits="userSpaceOnUse">
      <stop stop-color="#4E3510" />
      <stop offset="1" stop-color="#7B5C2D" />
    </linearGradient>
    <linearGradient id="paint24_linear_4505_304" x1="610.873" y1="804.803" x2="611" y2="921.5"
      gradientUnits="userSpaceOnUse">
      <stop stop-color="#FFC9A0" />
      <stop offset="1" stop-color="#FFE7D6" />
    </linearGradient>
    <linearGradient id="paint25_linear_4505_304" x1="669" y1="800.5" x2="669.239" y2="856.424"
      gradientUnits="userSpaceOnUse">
      <stop stop-color="#FFDB57" />
      <stop offset="1" stop-color="#F9CC1F" />
    </linearGradient>
    <linearGradient id="paint26_linear_4505_304" x1="591.125" y1="519.865" x2="745.395" y2="722.939"
      gradientUnits="userSpaceOnUse">
      <stop stop-color="#FDD023" />
      <stop offset="1" stop-color="#F8CB1E" />
    </linearGradient>
    <linearGradient id="paint27_linear_4505_304" x1="705.773" y1="735.19" x2="739.497" y2="1063.45"
      gradientUnits="userSpaceOnUse">
      <stop stop-color="white" />
      <stop offset="1" stop-color="#188D8D" />
    </linearGradient>
    <linearGradient id="paint28_linear_4505_304" x1="712" y1="747" x2="697" y2="743" gradientUnits="userSpaceOnUse">
      <stop stop-color="#B5DDDD" />
      <stop offset="1" stop-color="#D0E8E8" stop-opacity="0" />
    </linearGradient>
    <linearGradient id="paint29_linear_4505_304" x1="654.26" y1="621.952" x2="654.26" y2="663.192"
      gradientUnits="userSpaceOnUse">
      <stop stop-color="#FFC9A0" />
      <stop offset="1" stop-color="#FFDDC3" />
    </linearGradient>
    <linearGradient id="paint30_linear_4505_304" x1="707.411" y1="760.723" x2="618.817" y2="789.771"
      gradientUnits="userSpaceOnUse">
      <stop stop-color="#09005D" />
      <stop offset="1" stop-color="#1A0F91" />
    </linearGradient>
    <linearGradient id="paint31_linear_4505_304" x1="632.43" y1="780.277" x2="632.43" y2="790.391"
      gradientUnits="userSpaceOnUse">
      <stop stop-color="#165DFF" />
      <stop offset="0.745862" stop-color="#0035AF" />
    </linearGradient>
    <linearGradient id="paint32_linear_4505_304" x1="620.836" y1="776.542" x2="680.436" y2="804.15"
      gradientUnits="userSpaceOnUse">
      <stop stop-color="#052735" />
      <stop offset="1" stop-color="#214F62" />
    </linearGradient>
    <linearGradient id="paint33_linear_4505_304" x1="533.356" y1="651.621" x2="590.066" y2="811.461"
      gradientUnits="userSpaceOnUse">
      <stop stop-color="#2A2C33" />
      <stop offset="0.0001" stop-color="#55646A" />
      <stop offset="1" stop-color="#10475F" />
    </linearGradient>
    <linearGradient id="paint34_linear_4505_304" x1="890.939" y1="660.096" x2="928.67" y2="984.272"
      gradientUnits="userSpaceOnUse">
      <stop stop-color="white" />
    </linearGradient>
    <linearGradient id="paint35_linear_4505_304" x1="809" y1="663" x2="809" y2="692" gradientUnits="userSpaceOnUse">
      <stop stop-color="#D1E2E6" stop-opacity="0" />
      <stop offset="1" stop-color="#D1E2E6" />
    </linearGradient>
    <linearGradient id="paint36_linear_4505_304" x1="840.982" y1="533.297" x2="840.982" y2="565.348"
      gradientUnits="userSpaceOnUse">
      <stop stop-color="#F2C9AA" />
      <stop offset="1" stop-color="#FFDDC3" />
    </linearGradient>
    <linearGradient id="paint37_linear_4505_304" x1="851.855" y1="563.443" x2="790.723" y2="474.887"
      gradientUnits="userSpaceOnUse">
      <stop stop-color="#2F220E" />
      <stop offset="1" stop-color="#7A5A2B" />
    </linearGradient>
    <linearGradient id="paint38_linear_4505_304" x1="849.082" y1="506.716" x2="840" y2="524.797"
      gradientUnits="userSpaceOnUse">
      <stop stop-color="#FFDDC3" />
      <stop offset="1" stop-color="#F3CAAB" />
    </linearGradient>
    <linearGradient id="paint39_linear_4505_304" x1="871" y1="693" x2="871" y2="724" gradientUnits="userSpaceOnUse">
      <stop stop-color="#F3CAAB" />
      <stop offset="1" stop-color="#F3CAAB" stop-opacity="0" />
    </linearGradient>
    <linearGradient id="paint40_linear_4505_304" x1="881.377" y1="598.581" x2="881.377" y2="696.604"
      gradientUnits="userSpaceOnUse">
      <stop stop-color="#95BDC5" stop-opacity="0" />
      <stop offset="1" stop-color="#95BDC5" />
    </linearGradient>
    <linearGradient id="paint41_linear_4505_304" x1="369.5" y1="753.5" x2="395" y2="773" gradientUnits="userSpaceOnUse">
      <stop stop-color="#315565" />
      <stop offset="1" stop-color="#315565" stop-opacity="0" />
    </linearGradient>
    <linearGradient id="paint42_linear_4505_304" x1="913" y1="747.797" x2="887.5" y2="767.297"
      gradientUnits="userSpaceOnUse">
      <stop stop-color="#000304" />
      <stop offset="1" stop-opacity="0" />
    </linearGradient>
    <linearGradient id="paint43_linear_4505_304" x1="685.931" y1="885.063" x2="685.931" y2="987.161"
      gradientUnits="userSpaceOnUse">
      <stop stop-color="#0A2E3E" />
      <stop offset="1" stop-color="#10475F" />
    </linearGradient>
    <linearGradient id="paint44_linear_4505_304" x1="184.526" y1="885.063" x2="184.526" y2="987.161"
      gradientUnits="userSpaceOnUse">
      <stop stop-color="#0A2E3E" />
      <stop offset="1" stop-color="#10475F" />
    </linearGradient>
    <linearGradient id="paint45_linear_4505_304" x1="687.201" y1="853.333" x2="687.201" y2="884.994"
      gradientUnits="userSpaceOnUse">
      <stop stop-color="#2A6781" />
      <stop offset="1" stop-color="#10475F" />
    </linearGradient>
    <linearGradient id="paint46_linear_4505_304" x1="185.797" y1="853.333" x2="185.797" y2="884.994"
      gradientUnits="userSpaceOnUse">
      <stop stop-color="#2A6781" />
      <stop offset="1" stop-color="#10475F" />
    </linearGradient>
    <linearGradient id="paint47_linear_4505_304" x1="1000.86" y1="72.06" x2="924.559" y2="314.06"
      gradientUnits="userSpaceOnUse">
      <stop stop-color="#21ADA3" />
      <stop offset="1" stop-color="#4298C7" />
    </linearGradient>
    <linearGradient id="paint48_linear_4505_304" x1="967.892" y1="550.683" x2="909.617" y2="343.97"
      gradientUnits="userSpaceOnUse">
      <stop stop-color="#22AEA3" />
      <stop offset="1" stop-color="#409BC4" />
    </linearGradient>
    <linearGradient id="paint49_linear_4505_304" x1="604.311" y1="381.389" x2="912.154" y2="330.248"
      gradientUnits="userSpaceOnUse">
      <stop stop-color="#23ADA4" />
      <stop offset="0.745862" stop-color="#3F9BC3" />
    </linearGradient>
    <linearGradient id="paint50_linear_4505_304" x1="926.143" y1="299" x2="926.143" y2="406.178"
      gradientUnits="userSpaceOnUse">
      <stop stop-color="#FFD326" />
      <stop offset="0.692708" stop-color="#E7B503" />
    </linearGradient>
    <linearGradient id="paint51_linear_4505_304" x1="1218.89" y1="200.577" x2="1162.94" y2="378.044"
      gradientUnits="userSpaceOnUse">
      <stop stop-color="#21ADA3" />
      <stop offset="1" stop-color="#4298C7" />
    </linearGradient>
    <linearGradient id="paint52_linear_4505_304" x1="1194.72" y1="551.568" x2="1151.99" y2="399.978"
      gradientUnits="userSpaceOnUse">
      <stop stop-color="#22AEA3" />
      <stop offset="1" stop-color="#409BC4" />
    </linearGradient>
    <linearGradient id="paint53_linear_4505_304" x1="928.095" y1="427.418" x2="1153.85" y2="389.915"
      gradientUnits="userSpaceOnUse">
      <stop stop-color="#23ADA4" />
      <stop offset="0.745862" stop-color="#3F9BC3" />
    </linearGradient>
    <linearGradient id="paint54_linear_4505_304" x1="1164.1" y1="367" x2="1164.1" y2="445.597"
      gradientUnits="userSpaceOnUse">
      <stop stop-color="#FFD326" />
      <stop offset="0.692708" stop-color="#E7B503" />
    </linearGradient>
    <clipPath id="clip0_4505_304">
      <rect width="1482" height="1067" fill="white" />
    </clipPath>
  </defs>
</svg>