<svg width="110" height="32" viewBox="0 0 110 32" fill="current" xmlns="http://www.w3.org/2000/svg">
<path d="M6.98587 22.7287H30.354C27.7982 28.0864 22.3315 31.7884 16.0001 31.7884C7.22201 31.7884 0.105957 24.6723 0.105957 15.8942C0.105957 7.11606 7.22201 0 16.0001 0C22.3315 0 27.7982 3.70198 30.354 9.05969H6.98587C3.22394 9.05969 0.168626 12.0896 0.129571 15.8433C0.128663 15.8488 0.128663 15.8551 0.128663 15.8615V15.9169H0.129571C0.153185 19.6834 3.21486 22.7287 6.98587 22.7287Z" fill="currentColor"/>
<path d="M0.12957 15.917H0.128662V15.8943C0.128662 15.9016 0.128662 15.9088 0.12957 15.917Z" fill="currentColor"/>
<path d="M0.12957 15.8716C0.12957 15.8716 0.128662 15.8807 0.128662 15.8852V15.8716H0.12957Z" fill="currentColor"/>
<path d="M0.128662 15.8943C0.128662 15.9016 0.128662 15.9088 0.12957 15.917H0.128662V15.8943Z" fill="currentColor"/>
<path d="M31.8943 15.8941V15.9168C31.8943 16.1957 31.8862 16.4718 31.8716 16.747C31.8471 17.2174 31.8017 17.6825 31.7363 18.142H2.39926C1.77258 18.142 1.20493 17.8877 0.794402 17.4763C0.39296 17.0758 0.141377 16.5254 0.12957 15.9168C0.128662 15.9087 0.128662 15.9014 0.128662 15.8941V15.8851C0.128662 15.8805 0.128662 15.876 0.12957 15.8714C0.12957 15.8687 0.12957 15.8651 0.128662 15.8614C0.128662 15.8551 0.128662 15.8487 0.12957 15.8433C0.132295 15.579 0.180432 15.3256 0.266715 15.0903C0.27943 15.0558 0.293053 15.0213 0.307585 14.9877C0.335741 14.9196 0.368437 14.8533 0.40295 14.7888C0.420207 14.757 0.438372 14.7252 0.457445 14.6934C0.856162 14.0386 1.5764 13.6008 2.39926 13.6008H31.7299C31.8389 14.3492 31.8943 15.1149 31.8943 15.8941Z" fill="currentColor"/>
<path d="M0.128662 15.8616C0.128662 15.8616 0.12957 15.8688 0.12957 15.8716C0.128662 15.8761 0.128662 15.8806 0.128662 15.8852V15.8616Z" fill="currentColor"/>
<path d="M43.5933 13.9261C42.685 13.9261 41.8313 13.7536 41.032 13.4084C40.2328 13.0633 39.5362 12.5792 38.9431 11.9553C38.35 11.3313 37.8868 10.6083 37.5535 9.78456C37.2202 8.96078 37.054 8.07071 37.054 7.11433C37.054 6.15796 37.2202 5.27061 37.5535 4.45319C37.8868 3.63578 38.35 2.91827 38.9431 2.30066C39.5362 1.68306 40.2328 1.20169 41.032 0.856564C41.8313 0.511433 42.685 0.338867 43.5933 0.338867C44.744 0.338867 45.7885 0.575009 46.7267 1.04729C47.6649 1.51958 48.4369 2.17987 49.0427 3.02726C49.6485 3.87464 50.0236 4.85554 50.1689 5.96995H47.2444C47.1472 5.34054 46.9265 4.78924 46.5814 4.31696C46.2363 3.84467 45.8121 3.47502 45.3099 3.2089C44.8076 2.94279 44.2472 2.80928 43.6296 2.80928C43.0601 2.80928 42.5488 2.91191 42.0947 3.11808C41.6406 3.32425 41.2473 3.62034 40.914 4.00815C40.5806 4.39597 40.3263 4.85282 40.1511 5.3796C39.9758 5.90638 39.8877 6.48492 39.8877 7.11433C39.8877 7.74374 39.9758 8.34046 40.1511 8.86724C40.3263 9.39401 40.5806 9.85086 40.914 10.2387C41.2473 10.6265 41.6406 10.9262 42.0947 11.1378C42.5488 11.3495 43.0601 11.4557 43.6296 11.4557C44.2472 11.4557 44.8103 11.3195 45.3189 11.047C45.8275 10.7745 46.2481 10.3994 46.5814 9.92079C46.9147 9.44215 47.1354 8.89448 47.2444 8.27688H50.1689C50.0118 9.4031 49.6303 10.3904 49.0246 11.2377C48.4188 12.0851 47.6504 12.7454 46.7176 13.2177C45.7849 13.69 44.744 13.9261 43.5933 13.9261Z" fill="currentColor"/>
<path d="M57.6529 13.6536V12.4547C57.3378 12.9025 56.9382 13.2449 56.4541 13.4811C55.97 13.7172 55.3941 13.8353 54.7284 13.8353C53.723 13.8353 52.9119 13.5628 52.2943 13.0179C51.6767 12.4729 51.3679 11.7463 51.3679 10.8381C51.3679 9.92984 51.743 9.17327 52.4941 8.67647C53.2453 8.17966 54.3224 7.93171 55.7275 7.93171C56.0063 7.93171 56.2724 7.94079 56.5267 7.95896C56.781 7.97712 57.0535 8.00437 57.3441 8.0407V7.45942C57.3441 6.91448 57.1988 6.49033 56.9082 6.18789C56.6175 5.88545 56.2061 5.73377 55.673 5.73377C55.1398 5.73377 54.6984 5.88545 54.3833 6.18789C54.0681 6.49033 53.8865 6.91448 53.8383 7.45942H51.5677C51.6159 6.70831 51.8193 6.05801 52.1763 5.50671C52.5332 4.95541 53.0118 4.52854 53.6113 4.22609C54.2107 3.92365 54.8982 3.77197 55.673 3.77197C56.9445 3.77197 57.9345 4.1053 58.6429 4.77104C59.3513 5.43678 59.7056 6.36318 59.7056 7.55025V13.6536H57.6529ZM53.7475 10.7654C53.7475 11.165 53.8837 11.4857 54.1562 11.7282C54.4287 11.9707 54.8011 12.0914 55.2733 12.0914C55.9155 12.0914 56.4205 11.9252 56.7901 11.5919C57.1598 11.2586 57.3441 10.8136 57.3441 10.2568V9.56654C57.0535 9.5184 56.7928 9.4848 56.5631 9.46663C56.3333 9.44847 56.1089 9.43939 55.891 9.43939C55.1889 9.43939 54.6557 9.54838 54.2925 9.76635C53.9292 9.98433 53.7475 10.3177 53.7475 10.7654Z" fill="currentColor"/>
<path d="M64.4102 8.94903V13.6537H61.8853V3.95372H64.2103V5.82469C64.5736 5.20709 65.1004 4.72299 65.7907 4.37151C66.4809 4.02002 67.2139 3.84473 67.9886 3.84473V6.46046C67.2865 6.41232 66.6653 6.44502 66.1267 6.56036C65.5881 6.67571 65.1667 6.92366 64.8643 7.30512C64.5618 7.68658 64.4102 8.23425 64.4102 8.94903Z" fill="currentColor"/>
<path d="M78.9782 8.80365C78.9782 9.74822 78.7993 10.602 78.4424 11.3649C78.0854 12.1278 77.5859 12.73 76.9438 13.1723C76.3016 13.6146 75.5451 13.8353 74.6732 13.8353C74.0556 13.8353 73.4861 13.6963 72.9657 13.4175C72.4453 13.1387 71.9966 12.7518 71.6215 12.255V13.6536H69.2964V0.611328H71.8213V5.20702C72.1846 4.73474 72.6051 4.3778 73.0837 4.1353C73.5624 3.8928 74.0919 3.772 74.6732 3.772C75.5451 3.772 76.3016 3.98998 76.9438 4.42593C77.5859 4.86189 78.0854 5.46133 78.4424 6.22425C78.7993 6.98717 78.9782 7.84727 78.9782 8.80365ZM76.3807 8.80365C76.3807 7.87089 76.1563 7.17154 75.7086 6.70562C75.2608 6.23969 74.7277 6.00627 74.1101 6.00627C73.6977 6.00627 73.3199 6.1089 72.9748 6.31507C72.6296 6.52124 72.3544 6.83004 72.1483 7.24148C71.9421 7.65291 71.8395 8.16152 71.8395 8.76732C71.8395 9.37311 71.9394 9.88445 72.1392 10.3022C72.339 10.72 72.6142 11.0379 72.9657 11.2559C73.3172 11.4739 73.6986 11.5829 74.1101 11.5829C74.7277 11.5829 75.2608 11.3467 75.7086 10.8744C76.1563 10.4022 76.3807 9.71189 76.3807 8.80365Z" fill="currentColor"/>
<path d="M84.8809 13.8353C84.1788 13.8353 83.5276 13.7081 82.9282 13.4538C82.3288 13.1995 81.8083 12.8426 81.366 12.3821C80.9237 11.9216 80.5786 11.3857 80.3306 10.7745C80.0827 10.1633 79.9583 9.50569 79.9583 8.80362C79.9583 8.10155 80.0827 7.42945 80.3306 6.82366C80.5786 6.21786 80.9237 5.68563 81.366 5.22516C81.8083 4.76468 82.3288 4.40774 82.9282 4.15343C83.5276 3.89913 84.1788 3.77197 84.8809 3.77197C85.583 3.77197 86.2342 3.89913 86.8336 4.15343C87.4331 4.40774 87.9535 4.76468 88.3958 5.22516C88.8381 5.68563 89.1832 6.21786 89.4312 6.82366C89.6791 7.42945 89.8036 8.08884 89.8036 8.80362C89.8036 9.5184 89.6791 10.1633 89.4312 10.7745C89.1832 11.3857 88.8381 11.9216 88.3958 12.3821C87.9535 12.8426 87.4331 13.1995 86.8336 13.4538C86.2342 13.7081 85.583 13.8353 84.8809 13.8353ZM84.8809 11.601C85.3051 11.601 85.692 11.492 86.0435 11.274C86.3949 11.0561 86.6756 10.7382 86.8881 10.3204C87.0997 9.90259 87.206 9.3967 87.206 8.80362C87.206 8.21054 87.0997 7.68921 86.8881 7.27778C86.6765 6.86634 86.3949 6.55391 86.0435 6.34229C85.692 6.13067 85.3051 6.02441 84.8809 6.02441C84.4568 6.02441 84.0844 6.13067 83.7274 6.34229C83.3705 6.55391 83.0853 6.86634 82.8737 7.27778C82.6621 7.68921 82.5558 8.19782 82.5558 8.80362C82.5558 9.40942 82.6621 9.90259 82.8737 10.3204C83.0853 10.7382 83.3705 11.0561 83.7274 11.274C84.0844 11.492 84.4695 11.601 84.8809 11.601Z" fill="currentColor"/>
<path d="M93.9451 8.36766V13.6536H91.4202V3.95362H93.7453V5.33414C94.1086 4.85005 94.5354 4.46859 95.0259 4.18976C95.5163 3.91093 96.0822 3.77197 96.7243 3.77197C97.7052 3.77197 98.4981 4.0835 99.1039 4.70746C99.7097 5.33142 100.012 6.22422 100.012 7.38677V13.6536H97.5054V8.24051C97.5054 7.51392 97.3628 6.95989 97.0785 6.57843C96.7942 6.19697 96.3673 6.00624 95.7979 6.00624C95.4591 6.00624 95.1467 6.09434 94.8624 6.26963C94.5781 6.44492 94.3538 6.70559 94.1903 7.05072C94.0268 7.39585 93.9451 7.83453 93.9451 8.36766Z" fill="currentColor"/>
<path d="M46.5905 29.4207V31.8184H37.8169V18.7761H46.4633V21.1739H40.5779V23.9168H45.9184V26.2963H40.5779V29.4207H46.5905Z" fill="currentColor"/>
<path d="M51.0408 26.5325V31.8184H48.5159V22.1184H50.841V23.4989C51.2043 23.0148 51.6311 22.6334 52.1216 22.3546C52.612 22.0757 53.1779 21.9368 53.82 21.9368C54.8009 21.9368 55.5938 22.2483 56.1996 22.8723C56.8054 23.4962 57.1078 24.389 57.1078 25.5516V31.8184H54.6011V26.4053C54.6011 25.6787 54.4585 25.1247 54.1742 24.7432C53.8899 24.3618 53.4631 24.171 52.8936 24.171C52.5548 24.171 52.2424 24.2591 51.9581 24.4344C51.6738 24.6097 51.4495 24.8704 51.286 25.2155C51.1225 25.5606 51.0408 25.9993 51.0408 26.5325Z" fill="currentColor"/>
<path d="M69.7323 18.7761L65.0095 31.8184H61.9941L57.3076 18.7761H60.2866L63.5926 28.6033L66.9713 18.7761H69.7323Z" fill="currentColor"/>
<path d="M73.9284 19.8659C73.9284 20.2901 73.774 20.6443 73.4652 20.9286C73.1564 21.2128 72.7476 21.3554 72.239 21.3554C71.7304 21.3554 71.3399 21.2128 71.0311 20.9286C70.7223 20.6443 70.5679 20.2901 70.5679 19.8659C70.5679 19.4182 70.7223 19.0512 71.0311 18.767C71.3399 18.4827 71.7422 18.3401 72.239 18.3401C72.7358 18.3401 73.1564 18.4827 73.4652 18.767C73.774 19.0512 73.9284 19.4182 73.9284 19.8659ZM73.5287 31.8184H71.0038V22.1184H73.5287V31.8184Z" fill="currentColor"/>
<path d="M83.9728 28.7122C83.9728 29.7177 83.6004 30.5169 82.8556 31.11C82.1109 31.7031 81.0482 32.0001 79.6677 32.0001C78.2872 32.0001 77.2309 31.6885 76.4616 31.0646C75.6923 30.4406 75.26 29.5905 75.1628 28.5124H77.5788C77.5906 29.0092 77.794 29.4052 78.1873 29.7022C78.5805 29.9992 79.0864 30.1473 79.704 30.1473C80.2008 30.1473 80.6123 30.0655 80.9392 29.902C81.2662 29.7385 81.4297 29.487 81.4297 29.1482C81.4297 28.8457 81.3271 28.6151 81.1209 28.4579C80.9147 28.3008 80.5759 28.1791 80.1037 28.0946L78.3598 27.7677C77.4879 27.6105 76.804 27.2954 76.3072 26.8231C75.8104 26.3508 75.5625 25.7396 75.5625 24.9885C75.5625 24.3827 75.7259 23.8504 76.0529 23.39C76.3799 22.9295 76.8404 22.5725 77.4334 22.3182C78.0265 22.0639 78.7231 21.9368 79.5224 21.9368C80.3216 21.9368 81.051 22.073 81.6749 22.3455C82.2989 22.6179 82.7948 23.0085 83.1644 23.5171C83.5341 24.0257 83.7484 24.6252 83.8093 25.3154H81.3934C81.357 24.8431 81.169 24.4708 80.8303 24.1983C80.4915 23.9258 80.0555 23.7896 79.5224 23.7896C79.0619 23.7896 78.6895 23.8713 78.4053 24.0348C78.121 24.1983 77.9784 24.4372 77.9784 24.7523C77.9784 25.0429 78.081 25.2582 78.2872 25.3972C78.4934 25.5361 78.814 25.6487 79.2499 25.7332L81.1209 26.0783C82.0655 26.26 82.7766 26.5688 83.2553 27.0047C83.7339 27.4407 83.9728 28.0102 83.9728 28.7122Z" fill="currentColor"/>
<path d="M88.6229 19.8659C88.6229 20.2901 88.4685 20.6443 88.1597 20.9286C87.8509 21.2128 87.4422 21.3554 86.9336 21.3554C86.425 21.3554 86.0345 21.2128 85.7257 20.9286C85.4169 20.6443 85.2625 20.2901 85.2625 19.8659C85.2625 19.4182 85.4169 19.0512 85.7257 18.767C86.0345 18.4827 86.4368 18.3401 86.9336 18.3401C87.4304 18.3401 87.8509 18.4827 88.1597 18.767C88.4685 19.0512 88.6229 19.4182 88.6229 19.8659ZM88.2233 31.8184H85.6984V22.1184H88.2233V31.8184Z" fill="currentColor"/>
<path d="M94.7625 32.0001C94.0604 32.0001 93.4092 31.8729 92.8098 31.6186C92.2104 31.3643 91.6899 31.0074 91.2476 30.5469C90.8053 30.0864 90.4602 29.5505 90.2122 28.9393C89.9643 28.328 89.8398 27.6705 89.8398 26.9684C89.8398 26.2663 89.9643 25.5942 90.2122 24.9885C90.4602 24.3827 90.8053 23.8504 91.2476 23.39C91.6899 22.9295 92.2104 22.5725 92.8098 22.3182C93.4092 22.0639 94.0604 21.9368 94.7625 21.9368C95.4646 21.9368 96.1158 22.0639 96.7152 22.3182C97.3147 22.5725 97.8351 22.9295 98.2774 23.39C98.7197 23.8504 99.0648 24.3827 99.3128 24.9885C99.5607 25.5942 99.6852 26.2536 99.6852 26.9684C99.6852 27.6832 99.5607 28.328 99.3128 28.9393C99.0648 29.5505 98.7197 30.0864 98.2774 30.5469C97.8351 31.0074 97.3147 31.3643 96.7152 31.6186C96.1158 31.8729 95.4646 32.0001 94.7625 32.0001ZM94.7625 29.7658C95.1866 29.7658 95.5736 29.6568 95.925 29.4388C96.2765 29.2208 96.5572 28.903 96.7697 28.4852C96.9813 28.0674 97.0876 27.5615 97.0876 26.9684C97.0876 26.3753 96.9813 25.854 96.7697 25.4426C96.5581 25.0311 96.2765 24.7187 95.925 24.5071C95.5736 24.2955 95.1866 24.1892 94.7625 24.1892C94.3383 24.1892 93.966 24.2955 93.609 24.5071C93.2521 24.7187 92.9669 25.0311 92.7553 25.4426C92.5437 25.854 92.4374 26.3626 92.4374 26.9684C92.4374 27.5742 92.5437 28.0674 92.7553 28.4852C92.9669 28.903 93.2521 29.2208 93.609 29.4388C93.966 29.6568 94.3511 29.7658 94.7625 29.7658Z" fill="currentColor"/>
<path d="M103.827 26.5325V31.8184H101.302V22.1184H103.627V23.4989C103.99 23.0148 104.417 22.6334 104.908 22.3546C105.398 22.0757 105.964 21.9368 106.606 21.9368C107.587 21.9368 108.38 22.2483 108.986 22.8723C109.592 23.4962 109.894 24.389 109.894 25.5516V31.8184H107.387V26.4053C107.387 25.6787 107.245 25.1247 106.96 24.7432C106.676 24.3618 106.249 24.171 105.68 24.171C105.341 24.171 105.029 24.2591 104.744 24.4344C104.46 24.6097 104.236 24.8704 104.072 25.2155C103.909 25.5606 103.827 25.9993 103.827 26.5325Z" fill="currentColor"/>
</svg>
