<?xml version="1.0" encoding="UTF-8"?>
<svg id="_圖像" data-name="圖像" xmlns="http://www.w3.org/2000/svg" viewBox="0 0 1920 1080">
  <defs>
    <style>
      .cls-1 {
        fill: #fff;
      }
    </style>
  </defs>
  <g>
    <path class="cls-1" d="m425.55,601.42h257.29c-28.14,58.99-88.33,99.75-158.04,99.75-96.65,0-175-78.35-175-175s78.35-175,175-175c69.71,0,129.9,40.76,158.04,99.75h-257.29c-41.42,0-75.06,33.36-75.49,74.69-.01.06-.01.13-.01.2v.61h.01c.26,41.47,33.97,75,75.49,75Z"/>
    <path class="cls-1" d="m350.06,526.42h-.01v-.25c0,.08,0,.16.01.25Z"/>
    <path class="cls-1" d="m350.06,525.92s-.01.1-.01.15v-.15h.01Z"/>
    <path class="cls-1" d="m350.05,526.17c0,.08,0,.16.01.25h-.01v-.25Z"/>
    <path class="cls-1" d="m699.8,526.17v.25c0,3.07-.09,6.11-.25,9.14-.27,5.18-.77,10.3-1.49,15.36h-323.01c-6.9,0-13.15-2.8-17.67-7.33-4.42-4.41-7.19-10.47-7.32-17.17-.01-.09-.01-.17-.01-.25v-.1c0-.05,0-.1.01-.15,0-.03,0-.07-.01-.11,0-.07,0-.14.01-.2.03-2.91.56-5.7,1.51-8.29.14-.38.29-.76.45-1.13.31-.75.67-1.48,1.05-2.19.19-.35.39-.7.6-1.05,4.39-7.21,12.32-12.03,21.38-12.03h322.94c1.2,8.24,1.81,16.67,1.81,25.25Z"/>
    <path class="cls-1" d="m350.05,525.81s.01.08.01.11c-.01.05-.01.1-.01.15v-.26Z"/>
  </g>
  <g>
    <path class="cls-1" d="m828.61,504.5c-10,0-19.4-1.9-28.2-5.7s-16.47-9.13-23-16c-6.53-6.87-11.63-14.83-15.3-23.9-3.67-9.07-5.5-18.87-5.5-29.4s1.83-20.3,5.5-29.3c3.67-9,8.77-16.9,15.3-23.7,6.53-6.8,14.2-12.1,23-15.9,8.8-3.8,18.2-5.7,28.2-5.7,12.67,0,24.17,2.6,34.5,7.8,10.33,5.2,18.83,12.47,25.5,21.8,6.67,9.33,10.8,20.13,12.4,32.4h-32.2c-1.07-6.93-3.5-13-7.3-18.2-3.8-5.2-8.47-9.27-14-12.2-5.53-2.93-11.7-4.4-18.5-4.4-6.27,0-11.9,1.13-16.9,3.4-5,2.27-9.33,5.53-13,9.8-3.67,4.27-6.47,9.3-8.4,15.1-1.93,5.8-2.9,12.17-2.9,19.1s.97,13.5,2.9,19.3c1.93,5.8,4.73,10.83,8.4,15.1,3.67,4.27,8,7.57,13,9.9,5,2.33,10.63,3.5,16.9,3.5,6.8,0,13-1.5,18.6-4.5,5.6-3,10.23-7.13,13.9-12.4,3.67-5.27,6.1-11.3,7.3-18.1h32.2c-1.73,12.4-5.93,23.27-12.6,32.6-6.67,9.33-15.13,16.6-25.4,21.8-10.27,5.2-21.73,7.8-34.4,7.8Z"/>
    <path class="cls-1" d="m983.41,501.5v-13.2c-3.47,4.93-7.87,8.7-13.2,11.3-5.33,2.6-11.67,3.9-19,3.9-11.07,0-20-3-26.8-9s-10.2-14-10.2-24,4.13-18.33,12.4-23.8c8.27-5.47,20.13-8.2,35.6-8.2,3.07,0,6,.1,8.8.3,2.8.2,5.8.5,9,.9v-6.4c0-6-1.6-10.67-4.8-14-3.2-3.33-7.73-5-13.6-5s-10.73,1.67-14.2,5c-3.47,3.33-5.47,8-6,14h-25c.53-8.27,2.77-15.43,6.7-21.5,3.93-6.07,9.2-10.77,15.8-14.1,6.6-3.33,14.17-5,22.7-5,14,0,24.9,3.67,32.7,11,7.8,7.33,11.7,17.53,11.7,30.6v67.2h-22.6Zm-43-31.8c0,4.4,1.5,7.93,4.5,10.6,3,2.67,7.1,4,12.3,4,7.07,0,12.63-1.83,16.7-5.5,4.07-3.67,6.1-8.57,6.1-14.7v-7.6c-3.2-.53-6.07-.9-8.6-1.1-2.53-.2-5-.3-7.4-.3-7.73,0-13.6,1.2-17.6,3.6-4,2.4-6,6.07-6,11Z"/>
    <path class="cls-1" d="m1057.81,449.7v51.8h-27.8v-106.8h25.6v20.6c4-6.8,9.8-12.13,17.4-16,7.6-3.87,15.67-5.8,24.2-5.8v28.8c-7.73-.53-14.57-.17-20.5,1.1-5.93,1.27-10.57,4-13.9,8.2-3.33,4.2-5,10.23-5,18.1Z"/>
    <path class="cls-1" d="m1218.21,448.1c0,10.4-1.97,19.8-5.9,28.2-3.93,8.4-9.43,15.03-16.5,19.9-7.07,4.87-15.4,7.3-25,7.3-6.8,0-13.07-1.53-18.8-4.6-5.73-3.07-10.67-7.33-14.8-12.8v15.4h-25.6v-143.6h27.8v50.6c4-5.2,8.63-9.13,13.9-11.8,5.27-2.67,11.1-4,17.5-4,9.6,0,17.93,2.4,25,7.2,7.07,4.8,12.57,11.4,16.5,19.8,3.93,8.4,5.9,17.87,5.9,28.4Zm-28.6,0c0-10.27-2.47-17.97-7.4-23.1-4.93-5.13-10.8-7.7-17.6-7.7-4.54,0-8.7,1.13-12.5,3.4-3.8,2.27-6.83,5.67-9.1,10.2-2.27,4.53-3.4,10.13-3.4,16.8s1.1,12.3,3.3,16.9,5.23,8.1,9.1,10.5c3.87,2.4,8.07,3.6,12.6,3.6,6.8,0,12.67-2.6,17.6-7.8,4.93-5.2,7.4-12.8,7.4-22.8Z"/>
    <path class="cls-1" d="m1283.21,503.5c-7.73,0-14.9-1.4-21.5-4.2-6.6-2.8-12.33-6.73-17.2-11.8-4.87-5.07-8.67-10.97-11.4-17.7-2.73-6.73-4.1-13.97-4.1-21.7s1.37-15.13,4.1-21.8c2.73-6.67,6.53-12.53,11.4-17.6,4.87-5.07,10.6-9,17.2-11.8,6.6-2.8,13.77-4.2,21.5-4.2s14.9,1.4,21.5,4.2c6.6,2.8,12.33,6.73,17.2,11.8,4.87,5.07,8.67,10.93,11.4,17.6,2.73,6.67,4.1,13.93,4.1,21.8s-1.37,14.97-4.1,21.7c-2.73,6.73-6.53,12.63-11.4,17.7-4.87,5.07-10.6,9-17.2,11.8-6.6,2.8-13.77,4.2-21.5,4.2Zm0-24.6c4.67,0,8.93-1.2,12.8-3.6,3.87-2.4,6.96-5.9,9.3-10.5,2.33-4.6,3.5-10.17,3.5-16.7s-1.17-12.27-3.5-16.8c-2.33-4.53-5.43-7.97-9.3-10.3-3.87-2.33-8.13-3.5-12.8-3.5s-8.77,1.17-12.7,3.5c-3.93,2.33-7.07,5.77-9.4,10.3-2.33,4.53-3.5,10.13-3.5,16.8s1.17,12.1,3.5,16.7c2.33,4.6,5.47,8.1,9.4,10.5,3.93,2.4,8.17,3.6,12.7,3.6Z"/>
    <path class="cls-1" d="m1383.01,443.3v58.2h-27.8v-106.8h25.6v15.2c4-5.33,8.7-9.53,14.1-12.6,5.4-3.07,11.63-4.6,18.7-4.6,10.8,0,19.53,3.43,26.2,10.3,6.67,6.87,10,16.7,10,29.5v69h-27.6v-59.6c0-8-1.57-14.1-4.7-18.3-3.13-4.2-7.83-6.3-14.1-6.3-3.73,0-7.17.97-10.3,2.9-3.13,1.93-5.6,4.8-7.4,8.6-1.8,3.8-2.7,8.63-2.7,14.5Z"/>
    <path class="cls-1" d="m861.61,675.1v26.4h-96.6v-143.6h95.2v26.4h-64.8v30.2h58.8v26.2h-58.8v34.4h66.2Z"/>
    <path class="cls-1" d="m910.61,643.3v58.2h-27.8v-106.8h25.6v15.2c4-5.33,8.7-9.53,14.1-12.6,5.4-3.07,11.63-4.6,18.7-4.6,10.8,0,19.53,3.43,26.2,10.3,6.67,6.87,10,16.7,10,29.5v69h-27.6v-59.6c0-8-1.57-14.1-4.7-18.3-3.13-4.2-7.83-6.3-14.1-6.3-3.73,0-7.17.97-10.3,2.9-3.13,1.93-5.6,4.8-7.4,8.6-1.8,3.8-2.7,8.63-2.7,14.5Z"/>
    <path class="cls-1" d="m1116.41,557.9l-52,143.6h-33.2l-51.6-143.6h32.8l36.4,108.2,37.2-108.2h30.4Z"/>
    <path class="cls-1" d="m1162.61,569.9c0,4.67-1.7,8.57-5.1,11.7-3.4,3.13-7.9,4.7-13.5,4.7s-9.9-1.57-13.3-4.7c-3.4-3.13-5.1-7.03-5.1-11.7,0-4.93,1.7-8.97,5.1-12.1,3.4-3.13,7.83-4.7,13.3-4.7s10.1,1.57,13.5,4.7c3.4,3.13,5.1,7.17,5.1,12.1Zm-4.4,131.6h-27.8v-106.8h27.8v106.8Z"/>
    <path class="cls-1" d="m1273.21,667.3c0,11.07-4.1,19.87-12.3,26.4-8.2,6.53-19.9,9.8-35.1,9.8s-26.83-3.43-35.3-10.3c-8.47-6.87-13.23-16.23-14.3-28.1h26.6c.13,5.47,2.37,9.83,6.7,13.1,4.33,3.27,9.9,4.9,16.7,4.9,5.47,0,10-.9,13.6-2.7,3.6-1.8,5.4-4.57,5.4-8.3,0-3.33-1.13-5.87-3.4-7.6-2.27-1.73-6-3.07-11.2-4l-19.2-3.6c-9.6-1.73-17.13-5.2-22.6-10.4-5.47-5.2-8.2-11.93-8.2-20.2,0-6.67,1.8-12.53,5.4-17.6,3.6-5.07,8.67-9,15.2-11.8,6.53-2.8,14.2-4.2,23-4.2s16.83,1.5,23.7,4.5c6.87,3,12.33,7.3,16.4,12.9,4.07,5.6,6.43,12.2,7.1,19.8h-26.6c-.4-5.2-2.47-9.3-6.2-12.3-3.73-3-8.53-4.5-14.4-4.5-5.07,0-9.17.9-12.3,2.7-3.13,1.8-4.7,4.43-4.7,7.9,0,3.2,1.13,5.57,3.4,7.1,2.27,1.53,5.8,2.77,10.6,3.7l20.6,3.8c10.4,2,18.23,5.4,23.5,10.2,5.27,4.8,7.9,11.07,7.9,18.8Z"/>
    <path class="cls-1" d="m1324.4,569.9c0,4.67-1.7,8.57-5.1,11.7-3.4,3.13-7.9,4.7-13.5,4.7s-9.9-1.57-13.3-4.7c-3.4-3.13-5.1-7.03-5.1-11.7,0-4.93,1.7-8.97,5.1-12.1,3.4-3.13,7.83-4.7,13.3-4.7s10.1,1.57,13.5,4.7c3.4,3.13,5.1,7.17,5.1,12.1Zm-4.4,131.6h-27.8v-106.8h27.8v106.8Z"/>
    <path class="cls-1" d="m1392,703.5c-7.73,0-14.9-1.4-21.5-4.2-6.6-2.8-12.33-6.73-17.2-11.8-4.87-5.07-8.67-10.97-11.4-17.7-2.73-6.73-4.1-13.97-4.1-21.7s1.37-15.13,4.1-21.8c2.73-6.67,6.53-12.53,11.4-17.6,4.87-5.07,10.6-9,17.2-11.8,6.6-2.8,13.77-4.2,21.5-4.2s14.9,1.4,21.5,4.2c6.6,2.8,12.33,6.73,17.2,11.8,4.87,5.07,8.67,10.93,11.4,17.6,2.73,6.67,4.1,13.93,4.1,21.8s-1.37,14.97-4.1,21.7c-2.73,6.73-6.53,12.63-11.4,17.7-4.87,5.07-10.6,9-17.2,11.8-6.6,2.8-13.77,4.2-21.5,4.2Zm0-24.6c4.67,0,8.93-1.2,12.8-3.6,3.87-2.4,6.96-5.9,9.3-10.5,2.33-4.6,3.5-10.17,3.5-16.7s-1.17-12.27-3.5-16.8c-2.33-4.53-5.43-7.97-9.3-10.3-3.87-2.33-8.13-3.5-12.8-3.5s-8.77,1.17-12.7,3.5c-3.93,2.33-7.07,5.77-9.4,10.3-2.33,4.53-3.5,10.13-3.5,16.8s1.17,12.1,3.5,16.7c2.33,4.6,5.47,8.1,9.4,10.5,3.93,2.4,8.17,3.6,12.7,3.6Z"/>
    <path class="cls-1" d="m1491.8,643.3v58.2h-27.8v-106.8h25.6v15.2c4-5.33,8.7-9.53,14.1-12.6,5.4-3.07,11.63-4.6,18.7-4.6,10.8,0,19.53,3.43,26.2,10.3,6.67,6.87,10,16.7,10,29.5v69h-27.6v-59.6c0-8-1.57-14.1-4.7-18.3-3.13-4.2-7.83-6.3-14.1-6.3-3.73,0-7.17.97-10.3,2.9-3.13,1.93-5.6,4.8-7.4,8.6-1.8,3.8-2.7,8.63-2.7,14.5Z"/>
  </g>
</svg>